<svg xmlns="http://www.w3.org/2000/svg" xmlns:xlink="http://www.w3.org/1999/xlink" width="2376pt" height="476pt" viewBox="0.00 0.00 2376.00 476.00">
<g id="graph0" class="graph" transform="scale(1 1) rotate(0) translate(4 472)">
<polygon fill="white" stroke="none" points="-4,4 -4,-472 2371.74,-472 2371.74,4 -4,4"/>
<!-- create_function_job_4482b4a980e3721b35f8632c597fb36b -->
<g id="node1" class="node">
<title>create_function_job_4482b4a980e3721b35f8632c597fb36b</title>
<ellipse fill="none" stroke="black" cx="480.74" cy="-18" rx="361.51" ry="18"/>
<text xml:space="preserve" text-anchor="middle" x="480.74" y="-12.95" font-family="Times,serif" font-size="14.00">create_function_job=&lt;pyiron_base.project.delayed.DelayedObject object at 0x7f65acbc7c50&gt;</text>
</g>
<!-- plot_file_ecc368bfe100e5fb7b9720f8497511c2 -->
<g id="node2" class="node">
<title>plot_file_ecc368bfe100e5fb7b9720f8497511c2</title>
<ellipse fill="none" stroke="black" cx="480.74" cy="-162" rx="319.54" ry="18"/>
<text xml:space="preserve" text-anchor="middle" x="480.74" y="-156.95" font-family="Times,serif" font-size="14.00">plot_file=&lt;pyiron_base.project.delayed.DelayedObject object at 0x7f65acbc76b0&gt;</text>
</g>
<!-- plot_file_ecc368bfe100e5fb7b9720f8497511c2&#45;&gt;create_function_job_4482b4a980e3721b35f8632c597fb36b -->
<g id="edge1" class="edge">
<title>plot_file_ecc368bfe100e5fb7b9720f8497511c2-&gt;create_function_job_4482b4a980e3721b35f8632c597fb36b</title>
<path fill="none" stroke="black" d="M480.74,-143.59C480.74,-119.61 480.74,-76.14 480.74,-47.42"/>
<polygon fill="black" stroke="black" points="484.24,-47.62 480.74,-37.62 477.24,-47.62 484.24,-47.62"/>
</g>
<!-- poisson_output_vtu_file_b4a4fdf323c7367bb601b6b0a33c1fd9 -->
<g id="node3" class="node">
<title>poisson_output_vtu_file_b4a4fdf323c7367bb601b6b0a33c1fd9</title>
<ellipse fill="none" stroke="black" cx="547.74" cy="-234" rx="377.88" ry="18"/>
<text xml:space="preserve" text-anchor="middle" x="547.74" y="-228.95" font-family="Times,serif" font-size="14.00">poisson_output_vtu_file=&lt;pyiron_base.project.delayed.DelayedObject object at 0x7f65acbc7350&gt;</text>
</g>
<!-- poisson_output_vtu_file_b4a4fdf323c7367bb601b6b0a33c1fd9&#45;&gt;plot_file_ecc368bfe100e5fb7b9720f8497511c2 -->
<g id="edge2" class="edge">
<title>poisson_output_vtu_file_b4a4fdf323c7367bb601b6b0a33c1fd9-&gt;plot_file_ecc368bfe100e5fb7b9720f8497511c2</title>
<path fill="none" stroke="black" d="M531.18,-215.7C523.31,-207.47 513.75,-197.48 505.07,-188.42"/>
<polygon fill="black" stroke="black" points="507.6,-186 498.16,-181.2 502.55,-190.84 507.6,-186"/>
</g>
<!-- pvbatch_output_file_ecc368bfe100e5fb7b9720f8497511c2 -->
<g id="node4" class="node">
<title>pvbatch_output_file_ecc368bfe100e5fb7b9720f8497511c2</title>
<ellipse fill="none" stroke="black" cx="1180.74" cy="-162" rx="362.53" ry="18"/>
<text xml:space="preserve" text-anchor="middle" x="1180.74" y="-156.95" font-family="Times,serif" font-size="14.00">pvbatch_output_file=&lt;pyiron_base.project.delayed.DelayedObject object at 0x7f65acbc76b0&gt;</text>
</g>
<!-- poisson_output_vtu_file_b4a4fdf323c7367bb601b6b0a33c1fd9&#45;&gt;pvbatch_output_file_ecc368bfe100e5fb7b9720f8497511c2 -->
<g id="edge3" class="edge">
<title>poisson_output_vtu_file_b4a4fdf323c7367bb601b6b0a33c1fd9-&gt;pvbatch_output_file_ecc368bfe100e5fb7b9720f8497511c2</title>
<path fill="none" stroke="black" d="M692.97,-216.94C792.27,-205.96 923.76,-191.42 1025.19,-180.2"/>
<polygon fill="black" stroke="black" points="1025.41,-183.7 1034.97,-179.12 1024.64,-176.74 1025.41,-183.7"/>
</g>
<!-- macros_tex_c30fd594f4baa1031408cb2f039321e6 -->
<g id="node11" class="node">
<title>macros_tex_c30fd594f4baa1031408cb2f039321e6</title>
<ellipse fill="none" stroke="black" cx="1180.74" cy="-90" rx="330.8" ry="18"/>
<text xml:space="preserve" text-anchor="middle" x="1180.74" y="-84.95" font-family="Times,serif" font-size="14.00">macros_tex=&lt;pyiron_base.project.delayed.DelayedObject object at 0x7f65acbc79e0&gt;</text>
</g>
<!-- pvbatch_output_file_ecc368bfe100e5fb7b9720f8497511c2&#45;&gt;macros_tex_c30fd594f4baa1031408cb2f039321e6 -->
<g id="edge26" class="edge">
<title>pvbatch_output_file_ecc368bfe100e5fb7b9720f8497511c2-&gt;macros_tex_c30fd594f4baa1031408cb2f039321e6</title>
<path fill="none" stroke="black" d="M1180.74,-143.7C1180.74,-136.41 1180.74,-127.73 1180.74,-119.54"/>
<polygon fill="black" stroke="black" points="1184.24,-119.62 1180.74,-109.62 1177.24,-119.62 1184.24,-119.62"/>
</g>
<!-- meshio_output_h5_6bc0deaa8de7f44a898b409ee3bcf64d -->
<g id="node5" class="node">
<title>meshio_output_h5_6bc0deaa8de7f44a898b409ee3bcf64d</title>
<ellipse fill="none" stroke="black" cx="1609.74" cy="-306" rx="355.88" ry="18"/>
<text xml:space="preserve" text-anchor="middle" x="1609.74" y="-300.95" font-family="Times,serif" font-size="14.00">meshio_output_h5=&lt;pyiron_base.project.delayed.DelayedObject object at 0x7f65acbc6f60&gt;</text>
</g>
<!-- meshio_output_h5_6bc0deaa8de7f44a898b409ee3bcf64d&#45;&gt;poisson_output_vtu_file_b4a4fdf323c7367bb601b6b0a33c1fd9 -->
<g id="edge4" class="edge">
<title>meshio_output_h5_6bc0deaa8de7f44a898b409ee3bcf64d-&gt;poisson_output_vtu_file_b4a4fdf323c7367bb601b6b0a33c1fd9</title>
<path fill="none" stroke="black" d="M1398.97,-291.11C1218.5,-279.21 959.25,-262.12 774.35,-249.94"/>
<polygon fill="black" stroke="black" points="774.83,-246.46 764.62,-249.3 774.37,-253.45 774.83,-246.46"/>
</g>
<!-- poisson_output_pvd_file_9c3fc3549985d9eb1138ad9f1550f672 -->
<g id="node6" class="node">
<title>poisson_output_pvd_file_9c3fc3549985d9eb1138ad9f1550f672</title>
<ellipse fill="none" stroke="black" cx="1323.74" cy="-234" rx="379.93" ry="18"/>
<text xml:space="preserve" text-anchor="middle" x="1323.74" y="-228.95" font-family="Times,serif" font-size="14.00">poisson_output_pvd_file=&lt;pyiron_base.project.delayed.DelayedObject object at 0x7f65acbc7320&gt;</text>
</g>
<!-- meshio_output_h5_6bc0deaa8de7f44a898b409ee3bcf64d&#45;&gt;poisson_output_pvd_file_9c3fc3549985d9eb1138ad9f1550f672 -->
<g id="edge5" class="edge">
<title>meshio_output_h5_6bc0deaa8de7f44a898b409ee3bcf64d-&gt;poisson_output_pvd_file_9c3fc3549985d9eb1138ad9f1550f672</title>
<path fill="none" stroke="black" d="M1539.78,-287.88C1498.86,-277.86 1447.03,-265.17 1404.39,-254.74"/>
<polygon fill="black" stroke="black" points="1405.5,-251.41 1394.95,-252.43 1403.83,-258.21 1405.5,-251.41"/>
</g>
<!-- ndofs_eecd1be0bc7fbc8b6b2c4de6573cfa92 -->
<g id="node7" class="node">
<title>ndofs_eecd1be0bc7fbc8b6b2c4de6573cfa92</title>
<ellipse fill="none" stroke="black" cx="2030.74" cy="-234" rx="308.79" ry="18"/>
<text xml:space="preserve" text-anchor="middle" x="2030.74" y="-228.95" font-family="Times,serif" font-size="14.00">ndofs=&lt;pyiron_base.project.delayed.DelayedObject object at 0x7f65acbc7740&gt;</text>
</g>
<!-- meshio_output_h5_6bc0deaa8de7f44a898b409ee3bcf64d&#45;&gt;ndofs_eecd1be0bc7fbc8b6b2c4de6573cfa92 -->
<g id="edge6" class="edge">
<title>meshio_output_h5_6bc0deaa8de7f44a898b409ee3bcf64d-&gt;ndofs_eecd1be0bc7fbc8b6b2c4de6573cfa92</title>
<path fill="none" stroke="black" d="M1710.32,-288.28C1773.66,-277.75 1855.47,-264.14 1920.57,-253.32"/>
<polygon fill="black" stroke="black" points="1920.91,-256.81 1930.2,-251.72 1919.76,-249.91 1920.91,-256.81"/>
</g>
<!-- poisson_output_pvd_file_9c3fc3549985d9eb1138ad9f1550f672&#45;&gt;plot_file_ecc368bfe100e5fb7b9720f8497511c2 -->
<g id="edge22" class="edge">
<title>poisson_output_pvd_file_9c3fc3549985d9eb1138ad9f1550f672-&gt;plot_file_ecc368bfe100e5fb7b9720f8497511c2</title>
<path fill="none" stroke="black" d="M1140.57,-217.79C1000.29,-206.14 807.55,-190.14 666.61,-178.43"/>
<polygon fill="black" stroke="black" points="667.03,-174.96 656.78,-177.62 666.46,-181.93 667.03,-174.96"/>
</g>
<!-- poisson_output_pvd_file_9c3fc3549985d9eb1138ad9f1550f672&#45;&gt;pvbatch_output_file_ecc368bfe100e5fb7b9720f8497511c2 -->
<g id="edge23" class="edge">
<title>poisson_output_pvd_file_9c3fc3549985d9eb1138ad9f1550f672-&gt;pvbatch_output_file_ecc368bfe100e5fb7b9720f8497511c2</title>
<path fill="none" stroke="black" d="M1288.4,-215.7C1269.66,-206.53 1246.43,-195.16 1226.35,-185.33"/>
<polygon fill="black" stroke="black" points="1228.06,-182.27 1217.54,-181.01 1224.98,-188.55 1228.06,-182.27"/>
</g>
<!-- ndofs_eecd1be0bc7fbc8b6b2c4de6573cfa92&#45;&gt;macros_tex_c30fd594f4baa1031408cb2f039321e6 -->
<g id="edge25" class="edge">
<title>ndofs_eecd1be0bc7fbc8b6b2c4de6573cfa92-&gt;macros_tex_c30fd594f4baa1031408cb2f039321e6</title>
<path fill="none" stroke="black" d="M1946.75,-216.24C1851.43,-197.48 1691.22,-166.75 1552.74,-144 1474.07,-131.08 1385.74,-118.41 1314.89,-108.71"/>
<polygon fill="black" stroke="black" points="1315.56,-105.27 1305.17,-107.38 1314.61,-112.2 1315.56,-105.27"/>
</g>
<!-- gmsh_output_file_6abc4cf8eb5cbaaad0d47530a1d72ad8 -->
<g id="node8" class="node">
<title>gmsh_output_file_6abc4cf8eb5cbaaad0d47530a1d72ad8</title>
<ellipse fill="none" stroke="black" cx="1238.74" cy="-378" rx="353.32" ry="18"/>
<text xml:space="preserve" text-anchor="middle" x="1238.74" y="-372.95" font-family="Times,serif" font-size="14.00">gmsh_output_file=&lt;pyiron_base.project.delayed.DelayedObject object at 0x7f65acbc6c60&gt;</text>
</g>
<!-- gmsh_output_file_6abc4cf8eb5cbaaad0d47530a1d72ad8&#45;&gt;meshio_output_h5_6bc0deaa8de7f44a898b409ee3bcf64d -->
<g id="edge7" class="edge">
<title>gmsh_output_file_6abc4cf8eb5cbaaad0d47530a1d72ad8-&gt;meshio_output_h5_6bc0deaa8de7f44a898b409ee3bcf64d</title>
<path fill="none" stroke="black" d="M1328.08,-360.14C1382.65,-349.85 1452.58,-336.65 1509.1,-325.99"/>
<polygon fill="black" stroke="black" points="1509.55,-329.47 1518.73,-324.17 1508.26,-322.59 1509.55,-329.47"/>
</g>
<!-- meshio_output_xdmf_bf593bb9f353dd5c0cb0cd70f82c3c52 -->
<g id="node9" class="node">
<title>meshio_output_xdmf_bf593bb9f353dd5c0cb0cd70f82c3c52</title>
<ellipse fill="none" stroke="black" cx="868.74" cy="-306" rx="366.63" ry="18"/>
<text xml:space="preserve" text-anchor="middle" x="868.74" y="-300.95" font-family="Times,serif" font-size="14.00">meshio_output_xdmf=&lt;pyiron_base.project.delayed.DelayedObject object at 0x7f65acbc6f30&gt;</text>
</g>
<!-- gmsh_output_file_6abc4cf8eb5cbaaad0d47530a1d72ad8&#45;&gt;meshio_output_xdmf_bf593bb9f353dd5c0cb0cd70f82c3c52 -->
<g id="edge8" class="edge">
<title>gmsh_output_file_6abc4cf8eb5cbaaad0d47530a1d72ad8-&gt;meshio_output_xdmf_bf593bb9f353dd5c0cb0cd70f82c3c52</title>
<path fill="none" stroke="black" d="M1149.65,-360.14C1095.22,-349.85 1025.49,-336.65 969.11,-325.99"/>
<polygon fill="black" stroke="black" points="969.99,-322.59 959.51,-324.17 968.69,-329.47 969.99,-322.59"/>
</g>
<!-- meshio_output_xdmf_bf593bb9f353dd5c0cb0cd70f82c3c52&#45;&gt;poisson_output_vtu_file_b4a4fdf323c7367bb601b6b0a33c1fd9 -->
<g id="edge19" class="edge">
<title>meshio_output_xdmf_bf593bb9f353dd5c0cb0cd70f82c3c52-&gt;poisson_output_vtu_file_b4a4fdf323c7367bb601b6b0a33c1fd9</title>
<path fill="none" stroke="black" d="M790.63,-287.97C744.23,-277.85 685.23,-264.98 636.99,-254.46"/>
<polygon fill="black" stroke="black" points="637.93,-251.08 627.41,-252.37 636.43,-257.92 637.93,-251.08"/>
</g>
<!-- meshio_output_xdmf_bf593bb9f353dd5c0cb0cd70f82c3c52&#45;&gt;poisson_output_pvd_file_9c3fc3549985d9eb1138ad9f1550f672 -->
<g id="edge20" class="edge">
<title>meshio_output_xdmf_bf593bb9f353dd5c0cb0cd70f82c3c52-&gt;poisson_output_pvd_file_9c3fc3549985d9eb1138ad9f1550f672</title>
<path fill="none" stroke="black" d="M976.86,-288.37C1045.22,-277.85 1133.64,-264.25 1204.1,-253.41"/>
<polygon fill="black" stroke="black" points="1204.4,-256.9 1213.75,-251.92 1203.33,-249.98 1204.4,-256.9"/>
</g>
<!-- meshio_output_xdmf_bf593bb9f353dd5c0cb0cd70f82c3c52&#45;&gt;ndofs_eecd1be0bc7fbc8b6b2c4de6573cfa92 -->
<g id="edge21" class="edge">
<title>meshio_output_xdmf_bf593bb9f353dd5c0cb0cd70f82c3c52-&gt;ndofs_eecd1be0bc7fbc8b6b2c4de6573cfa92</title>
<path fill="none" stroke="black" d="M1094.17,-291.42C1300.9,-278.97 1605.23,-260.63 1810.36,-248.28"/>
<polygon fill="black" stroke="black" points="1810.3,-251.79 1820.07,-247.69 1809.87,-244.8 1810.3,-251.79"/>
</g>
<!-- domain_size_f12a7f1986b9dd058dfc666dbe230b20 -->
<g id="node10" class="node">
<title>domain_size_f12a7f1986b9dd058dfc666dbe230b20</title>
<ellipse fill="none" stroke="black" cx="1802.74" cy="-450" rx="75.41" ry="18"/>
<text xml:space="preserve" text-anchor="middle" x="1802.74" y="-444.95" font-family="Times,serif" font-size="14.00">domain_size=2.0</text>
</g>
<!-- domain_size_f12a7f1986b9dd058dfc666dbe230b20&#45;&gt;gmsh_output_file_6abc4cf8eb5cbaaad0d47530a1d72ad8 -->
<g id="edge9" class="edge">
<title>domain_size_f12a7f1986b9dd058dfc666dbe230b20-&gt;gmsh_output_file_6abc4cf8eb5cbaaad0d47530a1d72ad8</title>
<path fill="none" stroke="black" d="M1736.94,-440.83C1649.98,-430.04 1494.45,-410.74 1380.24,-396.56"/>
<polygon fill="black" stroke="black" points="1380.82,-393.11 1370.47,-395.35 1379.96,-400.05 1380.82,-393.11"/>
</g>
<!-- domain_size_f12a7f1986b9dd058dfc666dbe230b20&#45;&gt;macros_tex_c30fd594f4baa1031408cb2f039321e6 -->
<g id="edge10" class="edge">
<title>domain_size_f12a7f1986b9dd058dfc666dbe230b20-&gt;macros_tex_c30fd594f4baa1031408cb2f039321e6</title>
<path fill="none" stroke="black" d="M1876.61,-445.86C2029.76,-437.32 2367.74,-407.13 2367.74,-307 2367.74,-307 2367.74,-307 2367.74,-233 2367.74,-144.65 1842.6,-111.01 1490.9,-98.38"/>
<polygon fill="black" stroke="black" points="1491.14,-94.89 1481.02,-98.03 1490.89,-101.89 1491.14,-94.89"/>
</g>
<!-- macros_tex_c30fd594f4baa1031408cb2f039321e6&#45;&gt;create_function_job_4482b4a980e3721b35f8632c597fb36b -->
<g id="edge24" class="edge">
<title>macros_tex_c30fd594f4baa1031408cb2f039321e6-&gt;create_function_job_4482b4a980e3721b35f8632c597fb36b</title>
<path fill="none" stroke="black" d="M1027.13,-73.64C915.25,-62.45 763.78,-47.3 648.71,-35.8"/>
<polygon fill="black" stroke="black" points="649.14,-32.32 638.84,-34.81 648.44,-39.29 649.14,-32.32"/>
</g>
<!-- source_directory_a0d63e861779e5432d394b13fa9c975d -->
<g id="node12" class="node">
<title>source_directory_a0d63e861779e5432d394b13fa9c975d</title>
<ellipse fill="none" stroke="black" cx="306.74" cy="-450" rx="306.74" ry="18"/>
<text xml:space="preserve" text-anchor="middle" x="306.74" y="-444.95" font-family="Times,serif" font-size="14.00">source_directory=/home/jan/notebooks/2026/2026-01-11-materialdigital/source</text>
</g>
<!-- source_directory_a0d63e861779e5432d394b13fa9c975d&#45;&gt;create_function_job_4482b4a980e3721b35f8632c597fb36b -->
<g id="edge11" class="edge">
<title>source_directory_a0d63e861779e5432d394b13fa9c975d-&gt;create_function_job_4482b4a980e3721b35f8632c597fb36b</title>
<path fill="none" stroke="black" d="M189.81,-432.91C139.6,-424.01 88.05,-411.59 68.74,-396 34.86,-368.65 27.74,-350.55 27.74,-307 27.74,-307 27.74,-307 27.74,-161 27.74,-95.77 200.96,-56.91 333.17,-36.76"/>
<polygon fill="black" stroke="black" points="333.35,-40.27 342.72,-35.32 332.31,-33.35 333.35,-40.27"/>
</g>
<!-- source_directory_a0d63e861779e5432d394b13fa9c975d&#45;&gt;plot_file_ecc368bfe100e5fb7b9720f8497511c2 -->
<g id="edge12" class="edge">
<title>source_directory_a0d63e861779e5432d394b13fa9c975d-&gt;plot_file_ecc368bfe100e5fb7b9720f8497511c2</title>
<path fill="none" stroke="black" d="M215.28,-432.41C177.13,-423.46 139.04,-411.13 127.74,-396 79.87,-331.9 75.54,-276.62 127.74,-216 144.41,-196.64 186.96,-184.25 236.99,-176.36"/>
<polygon fill="black" stroke="black" points="237.25,-179.86 246.62,-174.91 236.21,-172.93 237.25,-179.86"/>
</g>
<!-- source_directory_a0d63e861779e5432d394b13fa9c975d&#45;&gt;poisson_output_vtu_file_b4a4fdf323c7367bb601b6b0a33c1fd9 -->
<g id="edge13" class="edge">
<title>source_directory_a0d63e861779e5432d394b13fa9c975d-&gt;poisson_output_vtu_file_b4a4fdf323c7367bb601b6b0a33c1fd9</title>
<path fill="none" stroke="black" d="M315.18,-431.58C331.65,-399.2 371.05,-329.27 422.74,-288 439.22,-274.85 459.44,-264.42 478.78,-256.41"/>
<polygon fill="black" stroke="black" points="479.98,-259.7 487.99,-252.77 477.41,-253.19 479.98,-259.7"/>
</g>
<!-- source_directory_a0d63e861779e5432d394b13fa9c975d&#45;&gt;pvbatch_output_file_ecc368bfe100e5fb7b9720f8497511c2 -->
<g id="edge18" class="edge">
<title>source_directory_a0d63e861779e5432d394b13fa9c975d-&gt;pvbatch_output_file_ecc368bfe100e5fb7b9720f8497511c2</title>
<path fill="none" stroke="black" d="M281.13,-431.61C223.64,-390.57 94.35,-285.93 160.74,-216 163.99,-212.58 613.83,-190.28 914.96,-175.71"/>
<polygon fill="black" stroke="black" points="914.72,-179.23 924.54,-175.25 914.38,-172.24 914.72,-179.23"/>
</g>
<!-- source_directory_a0d63e861779e5432d394b13fa9c975d&#45;&gt;poisson_output_pvd_file_9c3fc3549985d9eb1138ad9f1550f672 -->
<g id="edge15" class="edge">
<title>source_directory_a0d63e861779e5432d394b13fa9c975d-&gt;poisson_output_pvd_file_9c3fc3549985d9eb1138ad9f1550f672</title>
<path fill="none" stroke="black" d="M323.88,-431.58C361.93,-393.35 453.22,-304.18 492.74,-288 518.79,-277.34 820.78,-260.03 1053.28,-248.11"/>
<polygon fill="black" stroke="black" points="1053.33,-251.61 1063.13,-247.61 1052.97,-244.62 1053.33,-251.61"/>
</g>
<!-- source_directory_a0d63e861779e5432d394b13fa9c975d&#45;&gt;ndofs_eecd1be0bc7fbc8b6b2c4de6573cfa92 -->
<g id="edge17" class="edge">
<title>source_directory_a0d63e861779e5432d394b13fa9c975d-&gt;ndofs_eecd1be0bc7fbc8b6b2c4de6573cfa92</title>
<path fill="none" stroke="black" d="M586.7,-442.42C907.05,-434.03 1411.74,-417.94 1600.74,-396 1768.89,-376.48 1835,-419.53 1974.74,-324 1996.36,-309.22 2011.33,-283.06 2020.32,-262.92"/>
<polygon fill="black" stroke="black" points="2023.48,-264.43 2024.12,-253.85 2017.03,-261.72 2023.48,-264.43"/>
</g>
<!-- source_directory_a0d63e861779e5432d394b13fa9c975d&#45;&gt;gmsh_output_file_6abc4cf8eb5cbaaad0d47530a1d72ad8 -->
<g id="edge14" class="edge">
<title>source_directory_a0d63e861779e5432d394b13fa9c975d-&gt;gmsh_output_file_6abc4cf8eb5cbaaad0d47530a1d72ad8</title>
<path fill="none" stroke="black" d="M490.6,-435.19C647.31,-423.42 872.3,-406.52 1034.57,-394.33"/>
<polygon fill="black" stroke="black" points="1034.44,-397.85 1044.15,-393.62 1033.91,-390.87 1034.44,-397.85"/>
</g>
<!-- source_directory_a0d63e861779e5432d394b13fa9c975d&#45;&gt;macros_tex_c30fd594f4baa1031408cb2f039321e6 -->
<g id="edge16" class="edge">
<title>source_directory_a0d63e861779e5432d394b13fa9c975d-&gt;macros_tex_c30fd594f4baa1031408cb2f039321e6</title>
<path fill="none" stroke="black" d="M172.65,-433.42C146.92,-425.44 121.79,-413.57 101.74,-396 69.66,-367.87 65.74,-349.67 65.74,-307 65.74,-307 65.74,-307 65.74,-233 65.74,-177.99 101.68,-166.78 151.74,-144 214.68,-115.37 576.91,-101.99 853.97,-95.88"/>
<polygon fill="black" stroke="black" points="854.01,-99.38 863.93,-95.66 853.86,-92.38 854.01,-99.38"/>
</g>
</g>
</svg>