<svg xmlns="http://www.w3.org/2000/svg" xmlns:xlink="http://www.w3.org/1999/xlink" width="3128pt" height="476pt" viewBox="0.00 0.00 3128.00 476.00">
<g id="graph0" class="graph" transform="scale(1 1) rotate(0) translate(4 472)">
<polygon fill="white" stroke="none" points="-4,4 -4,-472 3123.88,-472 3123.88,4 -4,4"/>
<!-- create_function_job_3f5acff9e454c0d1b3373172bac8c6bd -->
<g id="node1" class="node">
<title>create_function_job_3f5acff9e454c0d1b3373172bac8c6bd</title>
<ellipse fill="none" stroke="black" cx="2489" cy="-18" rx="485.25" ry="18"/>
<text xml:space="preserve" text-anchor="middle" x="2489" y="-13.32" font-family="Times,serif" font-size="14.00">create_function_job=&lt;pyiron_base.project.delayed.DelayedObject object at 0x7e68f6847680&gt;</text>
</g>
<!-- macros_tex_9baa6f5c79fc197fa59e906c683cba4b -->
<g id="node2" class="node">
<title>macros_tex_9baa6f5c79fc197fa59e906c683cba4b</title>
<ellipse fill="none" stroke="black" cx="1559" cy="-90" rx="444.74" ry="18"/>
<text xml:space="preserve" text-anchor="middle" x="1559" y="-85.33" font-family="Times,serif" font-size="14.00">macros_tex=&lt;pyiron_base.project.delayed.DelayedObject object at 0x7e68f6847410&gt;</text>
</g>
<!-- macros_tex_9baa6f5c79fc197fa59e906c683cba4b&#45;&gt;create_function_job_3f5acff9e454c0d1b3373172bac8c6bd -->
<g id="edge1" class="edge">
<title>macros_tex_9baa6f5c79fc197fa59e906c683cba4b-&gt;create_function_job_3f5acff9e454c0d1b3373172bac8c6bd</title>
<path fill="none" stroke="black" d="M1763.67,-73.59C1913.28,-62.33 2115.94,-47.08 2269.01,-35.56"/>
<polygon fill="black" stroke="black" points="2269.19,-39.05 2278.9,-34.81 2268.66,-32.07 2269.19,-39.05"/>
</g>
<!-- pvbatch_output_file_e5b316beb6fc4b5ad12b75611e47b0cb -->
<g id="node3" class="node">
<title>pvbatch_output_file_e5b316beb6fc4b5ad12b75611e47b0cb</title>
<ellipse fill="none" stroke="black" cx="1559" cy="-162" rx="485.25" ry="18"/>
<text xml:space="preserve" text-anchor="middle" x="1559" y="-157.32" font-family="Times,serif" font-size="14.00">pvbatch_output_file=&lt;pyiron_base.project.delayed.DelayedObject object at 0x7e68f68470e0&gt;</text>
</g>
<!-- pvbatch_output_file_e5b316beb6fc4b5ad12b75611e47b0cb&#45;&gt;macros_tex_9baa6f5c79fc197fa59e906c683cba4b -->
<g id="edge2" class="edge">
<title>pvbatch_output_file_e5b316beb6fc4b5ad12b75611e47b0cb-&gt;macros_tex_9baa6f5c79fc197fa59e906c683cba4b</title>
<path fill="none" stroke="black" d="M1559,-143.7C1559,-136.41 1559,-127.73 1559,-119.54"/>
<polygon fill="black" stroke="black" points="1562.5,-119.62 1559,-109.62 1555.5,-119.62 1562.5,-119.62"/>
</g>
<!-- poisson_output_pvd_file_56933fd5422d938029ae870d96be986b -->
<g id="node4" class="node">
<title>poisson_output_pvd_file_56933fd5422d938029ae870d96be986b</title>
<ellipse fill="none" stroke="black" cx="2411" cy="-234" rx="506.82" ry="18"/>
<text xml:space="preserve" text-anchor="middle" x="2411" y="-229.32" font-family="Times,serif" font-size="14.00">poisson_output_pvd_file=&lt;pyiron_base.project.delayed.DelayedObject object at 0x7e68f6846d80&gt;</text>
</g>
<!-- poisson_output_pvd_file_56933fd5422d938029ae870d96be986b&#45;&gt;pvbatch_output_file_e5b316beb6fc4b5ad12b75611e47b0cb -->
<g id="edge3" class="edge">
<title>poisson_output_pvd_file_56933fd5422d938029ae870d96be986b-&gt;pvbatch_output_file_e5b316beb6fc4b5ad12b75611e47b0cb</title>
<path fill="none" stroke="black" d="M2215.53,-216.94C2080.66,-205.86 1901.67,-191.15 1764.64,-179.9"/>
<polygon fill="black" stroke="black" points="1764.95,-176.41 1754.7,-179.08 1764.38,-183.39 1764.95,-176.41"/>
</g>
<!-- plot_file_e5b316beb6fc4b5ad12b75611e47b0cb -->
<g id="node5" class="node">
<title>plot_file_e5b316beb6fc4b5ad12b75611e47b0cb</title>
<ellipse fill="none" stroke="black" cx="2489" cy="-162" rx="426.85" ry="18"/>
<text xml:space="preserve" text-anchor="middle" x="2489" y="-157.32" font-family="Times,serif" font-size="14.00">plot_file=&lt;pyiron_base.project.delayed.DelayedObject object at 0x7e68f68470e0&gt;</text>
</g>
<!-- poisson_output_pvd_file_56933fd5422d938029ae870d96be986b&#45;&gt;plot_file_e5b316beb6fc4b5ad12b75611e47b0cb -->
<g id="edge4" class="edge">
<title>poisson_output_pvd_file_56933fd5422d938029ae870d96be986b-&gt;plot_file_e5b316beb6fc4b5ad12b75611e47b0cb</title>
<path fill="none" stroke="black" d="M2430.28,-215.7C2439.66,-207.28 2451.09,-197.02 2461.38,-187.79"/>
<polygon fill="black" stroke="black" points="2463.44,-190.64 2468.54,-181.36 2458.76,-185.43 2463.44,-190.64"/>
</g>
<!-- plot_file_e5b316beb6fc4b5ad12b75611e47b0cb&#45;&gt;create_function_job_3f5acff9e454c0d1b3373172bac8c6bd -->
<g id="edge26" class="edge">
<title>plot_file_e5b316beb6fc4b5ad12b75611e47b0cb-&gt;create_function_job_3f5acff9e454c0d1b3373172bac8c6bd</title>
<path fill="none" stroke="black" d="M2489,-143.59C2489,-119.61 2489,-76.14 2489,-47.42"/>
<polygon fill="black" stroke="black" points="2492.5,-47.62 2489,-37.62 2485.5,-47.62 2492.5,-47.62"/>
</g>
<!-- meshio_output_xdmf_4689182a74107bf28b57befbd74c94c9 -->
<g id="node6" class="node">
<title>meshio_output_xdmf_4689182a74107bf28b57befbd74c94c9</title>
<ellipse fill="none" stroke="black" cx="1195" cy="-306" rx="491.56" ry="18"/>
<text xml:space="preserve" text-anchor="middle" x="1195" y="-301.32" font-family="Times,serif" font-size="14.00">meshio_output_xdmf=&lt;pyiron_base.project.delayed.DelayedObject object at 0x7e68f7368b30&gt;</text>
</g>
<!-- meshio_output_xdmf_4689182a74107bf28b57befbd74c94c9&#45;&gt;poisson_output_pvd_file_56933fd5422d938029ae870d96be986b -->
<g id="edge5" class="edge">
<title>meshio_output_xdmf_4689182a74107bf28b57befbd74c94c9-&gt;poisson_output_pvd_file_56933fd5422d938029ae870d96be986b</title>
<path fill="none" stroke="black" d="M1451.77,-290.22C1654.06,-278.57 1935.31,-262.38 2140.96,-250.55"/>
<polygon fill="black" stroke="black" points="2140.94,-254.05 2150.72,-249.98 2140.54,-247.06 2140.94,-254.05"/>
</g>
<!-- poisson_output_vtu_file_c73331171a859a678d7b7ebb4811e381 -->
<g id="node7" class="node">
<title>poisson_output_vtu_file_c73331171a859a678d7b7ebb4811e381</title>
<ellipse fill="none" stroke="black" cx="1381" cy="-234" rx="504.71" ry="18"/>
<text xml:space="preserve" text-anchor="middle" x="1381" y="-229.32" font-family="Times,serif" font-size="14.00">poisson_output_vtu_file=&lt;pyiron_base.project.delayed.DelayedObject object at 0x7e68f6846d50&gt;</text>
</g>
<!-- meshio_output_xdmf_4689182a74107bf28b57befbd74c94c9&#45;&gt;poisson_output_vtu_file_c73331171a859a678d7b7ebb4811e381 -->
<g id="edge6" class="edge">
<title>meshio_output_xdmf_4689182a74107bf28b57befbd74c94c9-&gt;poisson_output_vtu_file_c73331171a859a678d7b7ebb4811e381</title>
<path fill="none" stroke="black" d="M1240.98,-287.7C1266.13,-278.23 1297.51,-266.42 1324.18,-256.38"/>
<polygon fill="black" stroke="black" points="1325.36,-259.68 1333.49,-252.88 1322.9,-253.13 1325.36,-259.68"/>
</g>
<!-- ndofs_11224144a112030e3250f7b0b09e59ab -->
<g id="node8" class="node">
<title>ndofs_11224144a112030e3250f7b0b09e59ab</title>
<ellipse fill="none" stroke="black" cx="443" cy="-234" rx="415.28" ry="18"/>
<text xml:space="preserve" text-anchor="middle" x="443" y="-229.32" font-family="Times,serif" font-size="14.00">ndofs=&lt;pyiron_base.project.delayed.DelayedObject object at 0x7e68f6847170&gt;</text>
</g>
<!-- meshio_output_xdmf_4689182a74107bf28b57befbd74c94c9&#45;&gt;ndofs_11224144a112030e3250f7b0b09e59ab -->
<g id="edge7" class="edge">
<title>meshio_output_xdmf_4689182a74107bf28b57befbd74c94c9-&gt;ndofs_11224144a112030e3250f7b0b09e59ab</title>
<path fill="none" stroke="black" d="M1020.11,-288.72C901.34,-277.66 744.63,-263.08 624.48,-251.89"/>
<polygon fill="black" stroke="black" points="625.13,-248.44 614.85,-251 624.48,-255.41 625.13,-248.44"/>
</g>
<!-- poisson_output_vtu_file_c73331171a859a678d7b7ebb4811e381&#45;&gt;pvbatch_output_file_e5b316beb6fc4b5ad12b75611e47b0cb -->
<g id="edge23" class="edge">
<title>poisson_output_vtu_file_c73331171a859a678d7b7ebb4811e381-&gt;pvbatch_output_file_e5b316beb6fc4b5ad12b75611e47b0cb</title>
<path fill="none" stroke="black" d="M1425,-215.7C1448.96,-206.27 1478.83,-194.53 1504.28,-184.52"/>
<polygon fill="black" stroke="black" points="1505.46,-187.82 1513.48,-180.9 1502.89,-181.3 1505.46,-187.82"/>
</g>
<!-- poisson_output_vtu_file_c73331171a859a678d7b7ebb4811e381&#45;&gt;plot_file_e5b316beb6fc4b5ad12b75611e47b0cb -->
<g id="edge24" class="edge">
<title>poisson_output_vtu_file_c73331171a859a678d7b7ebb4811e381-&gt;plot_file_e5b316beb6fc4b5ad12b75611e47b0cb</title>
<path fill="none" stroke="black" d="M1622.1,-217.77C1807.23,-206.07 2061.73,-189.99 2247.07,-178.28"/>
<polygon fill="black" stroke="black" points="2247.07,-181.79 2256.83,-177.67 2246.63,-174.81 2247.07,-181.79"/>
</g>
<!-- ndofs_11224144a112030e3250f7b0b09e59ab&#45;&gt;macros_tex_9baa6f5c79fc197fa59e906c683cba4b -->
<g id="edge25" class="edge">
<title>ndofs_11224144a112030e3250f7b0b09e59ab-&gt;macros_tex_9baa6f5c79fc197fa59e906c683cba4b</title>
<path fill="none" stroke="black" d="M552.39,-216.16C676.5,-197.33 885.05,-166.52 1065,-144 1170.38,-130.81 1288.66,-118.05 1383.06,-108.36"/>
<polygon fill="black" stroke="black" points="1383.35,-111.84 1392.94,-107.34 1382.64,-104.88 1383.35,-111.84"/>
</g>
<!-- gmsh_output_file_ee4dd4630cc01f75bd22a2e6ba3a1197 -->
<g id="node9" class="node">
<title>gmsh_output_file_ee4dd4630cc01f75bd22a2e6ba3a1197</title>
<ellipse fill="none" stroke="black" cx="1689" cy="-378" rx="473.15" ry="18"/>
<text xml:space="preserve" text-anchor="middle" x="1689" y="-373.32" font-family="Times,serif" font-size="14.00">gmsh_output_file=&lt;pyiron_base.project.delayed.DelayedObject object at 0x7e68f68467b0&gt;</text>
</g>
<!-- gmsh_output_file_ee4dd4630cc01f75bd22a2e6ba3a1197&#45;&gt;meshio_output_xdmf_4689182a74107bf28b57befbd74c94c9 -->
<g id="edge8" class="edge">
<title>gmsh_output_file_ee4dd4630cc01f75bd22a2e6ba3a1197-&gt;meshio_output_xdmf_4689182a74107bf28b57befbd74c94c9</title>
<path fill="none" stroke="black" d="M1569.73,-360.1C1495.98,-349.65 1401.27,-336.23 1325.52,-325.49"/>
<polygon fill="black" stroke="black" points="1326.38,-322.08 1315.98,-324.14 1325.39,-329.01 1326.38,-322.08"/>
</g>
<!-- meshio_output_h5_ae7e8f51b534aff9ebf5e67c64a93d13 -->
<g id="node10" class="node">
<title>meshio_output_h5_ae7e8f51b534aff9ebf5e67c64a93d13</title>
<ellipse fill="none" stroke="black" cx="2183" cy="-306" rx="478.94" ry="18"/>
<text xml:space="preserve" text-anchor="middle" x="2183" y="-301.32" font-family="Times,serif" font-size="14.00">meshio_output_h5=&lt;pyiron_base.project.delayed.DelayedObject object at 0x7e68f6846990&gt;</text>
</g>
<!-- gmsh_output_file_ee4dd4630cc01f75bd22a2e6ba3a1197&#45;&gt;meshio_output_h5_ae7e8f51b534aff9ebf5e67c64a93d13 -->
<g id="edge9" class="edge">
<title>gmsh_output_file_ee4dd4630cc01f75bd22a2e6ba3a1197-&gt;meshio_output_h5_ae7e8f51b534aff9ebf5e67c64a93d13</title>
<path fill="none" stroke="black" d="M1808.27,-360.1C1882.15,-349.63 1977.08,-336.18 2052.9,-325.44"/>
<polygon fill="black" stroke="black" points="2053.03,-328.95 2062.44,-324.08 2052.05,-322.02 2053.03,-328.95"/>
</g>
<!-- meshio_output_h5_ae7e8f51b534aff9ebf5e67c64a93d13&#45;&gt;poisson_output_pvd_file_56933fd5422d938029ae870d96be986b -->
<g id="edge20" class="edge">
<title>meshio_output_h5_ae7e8f51b534aff9ebf5e67c64a93d13-&gt;poisson_output_pvd_file_56933fd5422d938029ae870d96be986b</title>
<path fill="none" stroke="black" d="M2239.36,-287.7C2270.87,-278.02 2310.36,-265.9 2343.52,-255.72"/>
<polygon fill="black" stroke="black" points="2344.52,-259.07 2353.05,-252.79 2342.46,-252.38 2344.52,-259.07"/>
</g>
<!-- meshio_output_h5_ae7e8f51b534aff9ebf5e67c64a93d13&#45;&gt;poisson_output_vtu_file_c73331171a859a678d7b7ebb4811e381 -->
<g id="edge21" class="edge">
<title>meshio_output_h5_ae7e8f51b534aff9ebf5e67c64a93d13-&gt;poisson_output_vtu_file_c73331171a859a678d7b7ebb4811e381</title>
<path fill="none" stroke="black" d="M1999,-288.94C1873.07,-277.95 1706.28,-263.39 1577.71,-252.17"/>
<polygon fill="black" stroke="black" points="1578.34,-248.71 1568.08,-251.33 1577.73,-255.68 1578.34,-248.71"/>
</g>
<!-- meshio_output_h5_ae7e8f51b534aff9ebf5e67c64a93d13&#45;&gt;ndofs_11224144a112030e3250f7b0b09e59ab -->
<g id="edge22" class="edge">
<title>meshio_output_h5_ae7e8f51b534aff9ebf5e67c64a93d13-&gt;ndofs_11224144a112030e3250f7b0b09e59ab</title>
<path fill="none" stroke="black" d="M1864.36,-292.18C1547.37,-279.43 1064.28,-259.99 751.05,-247.39"/>
<polygon fill="black" stroke="black" points="751.62,-243.91 741.49,-247.01 751.34,-250.91 751.62,-243.91"/>
</g>
<!-- domain_size_f12a7f1986b9dd058dfc666dbe230b20 -->
<g id="node11" class="node">
<title>domain_size_f12a7f1986b9dd058dfc666dbe230b20</title>
<ellipse fill="none" stroke="black" cx="845" cy="-450" rx="96.45" ry="18"/>
<text xml:space="preserve" text-anchor="middle" x="845" y="-445.32" font-family="Times,serif" font-size="14.00">domain_size=2.0</text>
</g>
<!-- domain_size_f12a7f1986b9dd058dfc666dbe230b20&#45;&gt;macros_tex_9baa6f5c79fc197fa59e906c683cba4b -->
<g id="edge10" class="edge">
<title>domain_size_f12a7f1986b9dd058dfc666dbe230b20-&gt;macros_tex_9baa6f5c79fc197fa59e906c683cba4b</title>
<path fill="none" stroke="black" d="M754.97,-443.22C537.24,-428.05 0,-382.91 0,-307 0,-307 0,-307 0,-233 0,-53.24 624.83,-158.5 804,-144 975.85,-130.09 1169.89,-116.51 1318.22,-106.59"/>
<polygon fill="black" stroke="black" points="1318.01,-110.11 1327.76,-105.95 1317.55,-103.12 1318.01,-110.11"/>
</g>
<!-- domain_size_f12a7f1986b9dd058dfc666dbe230b20&#45;&gt;gmsh_output_file_ee4dd4630cc01f75bd22a2e6ba3a1197 -->
<g id="edge11" class="edge">
<title>domain_size_f12a7f1986b9dd058dfc666dbe230b20-&gt;gmsh_output_file_ee4dd4630cc01f75bd22a2e6ba3a1197</title>
<path fill="none" stroke="black" d="M931.75,-441.81C1061.37,-431.05 1309.25,-410.5 1486.1,-395.83"/>
<polygon fill="black" stroke="black" points="1486.19,-399.33 1495.87,-395.02 1485.61,-392.36 1486.19,-399.33"/>
</g>
<!-- source_directory_8c1956470a985919d1bf6df6988792b3 -->
<g id="node12" class="node">
<title>source_directory_8c1956470a985919d1bf6df6988792b3</title>
<ellipse fill="none" stroke="black" cx="2914" cy="-450" rx="205.88" ry="18"/>
<text xml:space="preserve" text-anchor="middle" x="2914" y="-445.32" font-family="Times,serif" font-size="14.00">source_directory=/home/jovyan/source</text>
</g>
<!-- source_directory_8c1956470a985919d1bf6df6988792b3&#45;&gt;create_function_job_3f5acff9e454c0d1b3373172bac8c6bd -->
<g id="edge12" class="edge">
<title>source_directory_8c1956470a985919d1bf6df6988792b3-&gt;create_function_job_3f5acff9e454c0d1b3373172bac8c6bd</title>
<path fill="none" stroke="black" d="M2955.6,-431.91C2973.53,-423.09 2993.82,-411 3009,-396 3041.42,-363.95 3060,-352.59 3060,-307 3060,-307 3060,-307 3060,-161 3060,-88.8 2885.9,-53.04 2729.97,-35.49"/>
<polygon fill="black" stroke="black" points="2730.61,-32.04 2720.28,-34.42 2729.84,-39 2730.61,-32.04"/>
</g>
<!-- source_directory_8c1956470a985919d1bf6df6988792b3&#45;&gt;macros_tex_9baa6f5c79fc197fa59e906c683cba4b -->
<g id="edge13" class="edge">
<title>source_directory_8c1956470a985919d1bf6df6988792b3-&gt;macros_tex_9baa6f5c79fc197fa59e906c683cba4b</title>
<path fill="none" stroke="black" d="M2941.32,-431.86C2954.59,-422.51 2970,-409.99 2981,-396 3007.93,-361.77 3022,-350.55 3022,-307 3022,-307 3022,-307 3022,-233 3022,-174.49 2979.1,-166.28 2925,-144 2841.51,-109.62 2374.61,-97.39 2009.62,-93.12"/>
<polygon fill="black" stroke="black" points="2009.86,-89.62 1999.82,-93.01 2009.78,-96.62 2009.86,-89.62"/>
</g>
<!-- source_directory_8c1956470a985919d1bf6df6988792b3&#45;&gt;pvbatch_output_file_e5b316beb6fc4b5ad12b75611e47b0cb -->
<g id="edge14" class="edge">
<title>source_directory_8c1956470a985919d1bf6df6988792b3-&gt;pvbatch_output_file_e5b316beb6fc4b5ad12b75611e47b0cb</title>
<path fill="none" stroke="black" d="M2922.34,-431.75C2941.81,-388.71 2984.44,-275.71 2927,-216 2922.62,-211.45 2320.13,-189.55 1916.27,-175.36"/>
<polygon fill="black" stroke="black" points="1916.61,-171.87 1906.49,-175.02 1916.36,-178.87 1916.61,-171.87"/>
</g>
<!-- source_directory_8c1956470a985919d1bf6df6988792b3&#45;&gt;poisson_output_pvd_file_56933fd5422d938029ae870d96be986b -->
<g id="edge15" class="edge">
<title>source_directory_8c1956470a985919d1bf6df6988792b3-&gt;poisson_output_pvd_file_56933fd5422d938029ae870d96be986b</title>
<path fill="none" stroke="black" d="M2908.03,-431.58C2895.36,-397.56 2862.35,-322.6 2807,-288 2780.1,-271.19 2721.88,-259.62 2658.15,-251.7"/>
<polygon fill="black" stroke="black" points="2658.89,-248.27 2648.54,-250.55 2658.05,-255.22 2658.89,-248.27"/>
</g>
<!-- source_directory_8c1956470a985919d1bf6df6988792b3&#45;&gt;plot_file_e5b316beb6fc4b5ad12b75611e47b0cb -->
<g id="edge19" class="edge">
<title>source_directory_8c1956470a985919d1bf6df6988792b3-&gt;plot_file_e5b316beb6fc4b5ad12b75611e47b0cb</title>
<path fill="none" stroke="black" d="M2934.82,-431.62C2944.46,-422.2 2954.89,-409.7 2960,-396 2987.99,-321.06 3013.31,-275.65 2960,-216 2944.49,-198.65 2850.7,-186.28 2750.85,-177.88"/>
<polygon fill="black" stroke="black" points="2751.36,-174.41 2741.11,-177.08 2750.79,-181.39 2751.36,-174.41"/>
</g>
<!-- source_directory_8c1956470a985919d1bf6df6988792b3&#45;&gt;poisson_output_vtu_file_c73331171a859a678d7b7ebb4811e381 -->
<g id="edge17" class="edge">
<title>source_directory_8c1956470a985919d1bf6df6988792b3-&gt;poisson_output_vtu_file_c73331171a859a678d7b7ebb4811e381</title>
<path fill="none" stroke="black" d="M2895.76,-431.65C2857.68,-396.7 2765.37,-318.55 2671,-288 2649,-280.88 2118.95,-260.9 1745.24,-247.61"/>
<polygon fill="black" stroke="black" points="1745.58,-244.12 1735.46,-247.26 1745.33,-251.12 1745.58,-244.12"/>
</g>
<!-- source_directory_8c1956470a985919d1bf6df6988792b3&#45;&gt;ndofs_11224144a112030e3250f7b0b09e59ab -->
<g id="edge18" class="edge">
<title>source_directory_8c1956470a985919d1bf6df6988792b3-&gt;ndofs_11224144a112030e3250f7b0b09e59ab</title>
<path fill="none" stroke="black" d="M2707.64,-449.8C2386.29,-449.41 1747.07,-442.15 1207,-396 977.6,-376.4 917.63,-378.75 694,-324 623.08,-306.64 544.15,-276.83 494.07,-256.54"/>
<polygon fill="black" stroke="black" points="495.51,-253.35 484.93,-252.81 492.87,-259.83 495.51,-253.35"/>
</g>
<!-- source_directory_8c1956470a985919d1bf6df6988792b3&#45;&gt;gmsh_output_file_ee4dd4630cc01f75bd22a2e6ba3a1197 -->
<g id="edge16" class="edge">
<title>source_directory_8c1956470a985919d1bf6df6988792b3-&gt;gmsh_output_file_ee4dd4630cc01f75bd22a2e6ba3a1197</title>
<path fill="none" stroke="black" d="M2745.28,-439.36C2541.28,-427.7 2195.48,-407.94 1955.36,-394.22"/>
<polygon fill="black" stroke="black" points="1955.7,-390.73 1945.52,-393.66 1955.3,-397.72 1955.7,-390.73"/>
</g>
</g>
</svg>