<svg xmlns="http://www.w3.org/2000/svg" xmlns:xlink="http://www.w3.org/1999/xlink" width="3064pt" height="476pt" viewBox="0.00 0.00 3064.00 476.00">
<g id="graph0" class="graph" transform="scale(1 1) rotate(0) translate(4 472)">
<polygon fill="white" stroke="none" points="-4,4 -4,-472 3060,-472 3060,4 -4,4"/>
<!-- create_function_job_fe3f74611c4e73a2167d357a2d0ed4c0 -->
<g id="node1" class="node">
<title>create_function_job_fe3f74611c4e73a2167d357a2d0ed4c0</title>
<ellipse fill="none" stroke="black" cx="569" cy="-18" rx="484.2" ry="18"/>
<text xml:space="preserve" text-anchor="middle" x="569" y="-13.32" font-family="Times,serif" font-size="14.00">create_function_job=&lt;pyiron_base.project.delayed.DelayedObject object at 0x7a0f75a7a270&gt;</text>
</g>
<!-- plot_file_3a061643d8206978548bb2fb3310a5a3 -->
<g id="node2" class="node">
<title>plot_file_3a061643d8206978548bb2fb3310a5a3</title>
<ellipse fill="none" stroke="black" cx="569" cy="-162" rx="425.8" ry="18"/>
<text xml:space="preserve" text-anchor="middle" x="569" y="-157.32" font-family="Times,serif" font-size="14.00">plot_file=&lt;pyiron_base.project.delayed.DelayedObject object at 0x7a0f75a79cd0&gt;</text>
</g>
<!-- plot_file_3a061643d8206978548bb2fb3310a5a3&#45;&gt;create_function_job_fe3f74611c4e73a2167d357a2d0ed4c0 -->
<g id="edge1" class="edge">
<title>plot_file_3a061643d8206978548bb2fb3310a5a3-&gt;create_function_job_fe3f74611c4e73a2167d357a2d0ed4c0</title>
<path fill="none" stroke="black" d="M569,-143.59C569,-119.61 569,-76.14 569,-47.42"/>
<polygon fill="black" stroke="black" points="572.5,-47.62 569,-37.62 565.5,-47.62 572.5,-47.62"/>
</g>
<!-- poisson_output_vtu_file_d0aca254604285d4bdb8ec716c489841 -->
<g id="node3" class="node">
<title>poisson_output_vtu_file_d0aca254604285d4bdb8ec716c489841</title>
<ellipse fill="none" stroke="black" cx="646" cy="-234" rx="504.19" ry="18"/>
<text xml:space="preserve" text-anchor="middle" x="646" y="-229.32" font-family="Times,serif" font-size="14.00">poisson_output_vtu_file=&lt;pyiron_base.project.delayed.DelayedObject object at 0x7a0f75a79970&gt;</text>
</g>
<!-- poisson_output_vtu_file_d0aca254604285d4bdb8ec716c489841&#45;&gt;plot_file_3a061643d8206978548bb2fb3310a5a3 -->
<g id="edge2" class="edge">
<title>poisson_output_vtu_file_d0aca254604285d4bdb8ec716c489841-&gt;plot_file_3a061643d8206978548bb2fb3310a5a3</title>
<path fill="none" stroke="black" d="M626.97,-215.7C617.8,-207.37 606.65,-197.22 596.57,-188.07"/>
<polygon fill="black" stroke="black" points="598.96,-185.5 589.2,-181.37 594.25,-190.68 598.96,-185.5"/>
</g>
<!-- pvbatch_output_file_3a061643d8206978548bb2fb3310a5a3 -->
<g id="node4" class="node">
<title>pvbatch_output_file_3a061643d8206978548bb2fb3310a5a3</title>
<ellipse fill="none" stroke="black" cx="1497" cy="-162" rx="484.2" ry="18"/>
<text xml:space="preserve" text-anchor="middle" x="1497" y="-157.32" font-family="Times,serif" font-size="14.00">pvbatch_output_file=&lt;pyiron_base.project.delayed.DelayedObject object at 0x7a0f75a79cd0&gt;</text>
</g>
<!-- poisson_output_vtu_file_d0aca254604285d4bdb8ec716c489841&#45;&gt;pvbatch_output_file_3a061643d8206978548bb2fb3310a5a3 -->
<g id="edge3" class="edge">
<title>poisson_output_vtu_file_d0aca254604285d4bdb8ec716c489841-&gt;pvbatch_output_file_3a061643d8206978548bb2fb3310a5a3</title>
<path fill="none" stroke="black" d="M841.24,-216.94C976.07,-205.85 1155.05,-191.13 1291.96,-179.87"/>
<polygon fill="black" stroke="black" points="1292.22,-183.36 1301.9,-179.05 1291.64,-176.38 1292.22,-183.36"/>
</g>
<!-- macros_tex_a75af4b3c6dc43ab5ecde0e4202f9977 -->
<g id="node11" class="node">
<title>macros_tex_a75af4b3c6dc43ab5ecde0e4202f9977</title>
<ellipse fill="none" stroke="black" cx="1497" cy="-90" rx="443.69" ry="18"/>
<text xml:space="preserve" text-anchor="middle" x="1497" y="-85.33" font-family="Times,serif" font-size="14.00">macros_tex=&lt;pyiron_base.project.delayed.DelayedObject object at 0x7a0f75a7a000&gt;</text>
</g>
<!-- pvbatch_output_file_3a061643d8206978548bb2fb3310a5a3&#45;&gt;macros_tex_a75af4b3c6dc43ab5ecde0e4202f9977 -->
<g id="edge26" class="edge">
<title>pvbatch_output_file_3a061643d8206978548bb2fb3310a5a3-&gt;macros_tex_a75af4b3c6dc43ab5ecde0e4202f9977</title>
<path fill="none" stroke="black" d="M1497,-143.7C1497,-136.41 1497,-127.73 1497,-119.54"/>
<polygon fill="black" stroke="black" points="1500.5,-119.62 1497,-109.62 1493.5,-119.62 1500.5,-119.62"/>
</g>
<!-- meshio_output_h5_657e934b934c9ab889bf8adff36fe90a -->
<g id="node5" class="node">
<title>meshio_output_h5_657e934b934c9ab889bf8adff36fe90a</title>
<ellipse fill="none" stroke="black" cx="2055" cy="-306" rx="478.41" ry="18"/>
<text xml:space="preserve" text-anchor="middle" x="2055" y="-301.32" font-family="Times,serif" font-size="14.00">meshio_output_h5=&lt;pyiron_base.project.delayed.DelayedObject object at 0x7a0f75a795b0&gt;</text>
</g>
<!-- meshio_output_h5_657e934b934c9ab889bf8adff36fe90a&#45;&gt;poisson_output_vtu_file_d0aca254604285d4bdb8ec716c489841 -->
<g id="edge4" class="edge">
<title>meshio_output_h5_657e934b934c9ab889bf8adff36fe90a-&gt;poisson_output_vtu_file_d0aca254604285d4bdb8ec716c489841</title>
<path fill="none" stroke="black" d="M1774.1,-291.04C1533.73,-279.1 1188.73,-261.96 943.66,-249.79"/>
<polygon fill="black" stroke="black" points="944.11,-246.31 933.94,-249.31 943.76,-253.3 944.11,-246.31"/>
</g>
<!-- poisson_output_pvd_file_b0763c123b16574f635e6fd1d2588acd -->
<g id="node6" class="node">
<title>poisson_output_pvd_file_b0763c123b16574f635e6fd1d2588acd</title>
<ellipse fill="none" stroke="black" cx="1674" cy="-234" rx="506.29" ry="18"/>
<text xml:space="preserve" text-anchor="middle" x="1674" y="-229.32" font-family="Times,serif" font-size="14.00">poisson_output_pvd_file=&lt;pyiron_base.project.delayed.DelayedObject object at 0x7a0f75a79940&gt;</text>
</g>
<!-- meshio_output_h5_657e934b934c9ab889bf8adff36fe90a&#45;&gt;poisson_output_pvd_file_b0763c123b16574f635e6fd1d2588acd -->
<g id="edge5" class="edge">
<title>meshio_output_h5_657e934b934c9ab889bf8adff36fe90a-&gt;poisson_output_pvd_file_b0763c123b16574f635e6fd1d2588acd</title>
<path fill="none" stroke="black" d="M1961.8,-287.88C1906.34,-277.69 1835.85,-264.74 1778.51,-254.2"/>
<polygon fill="black" stroke="black" points="1779.19,-250.77 1768.72,-252.4 1777.92,-257.65 1779.19,-250.77"/>
</g>
<!-- ndofs_b2794be0c287cab94402b5ae465882a9 -->
<g id="node7" class="node">
<title>ndofs_b2794be0c287cab94402b5ae465882a9</title>
<ellipse fill="none" stroke="black" cx="2613" cy="-234" rx="414.75" ry="18"/>
<text xml:space="preserve" text-anchor="middle" x="2613" y="-229.32" font-family="Times,serif" font-size="14.00">ndofs=&lt;pyiron_base.project.delayed.DelayedObject object at 0x7a0f75a79d60&gt;</text>
</g>
<!-- meshio_output_h5_657e934b934c9ab889bf8adff36fe90a&#45;&gt;ndofs_b2794be0c287cab94402b5ae465882a9 -->
<g id="edge6" class="edge">
<title>meshio_output_h5_657e934b934c9ab889bf8adff36fe90a-&gt;ndofs_b2794be0c287cab94402b5ae465882a9</title>
<path fill="none" stroke="black" d="M2188.3,-288.28C2273.23,-277.62 2383.21,-263.83 2469.97,-252.94"/>
<polygon fill="black" stroke="black" points="2470.25,-256.44 2479.73,-251.72 2469.38,-249.49 2470.25,-256.44"/>
</g>
<!-- poisson_output_pvd_file_b0763c123b16574f635e6fd1d2588acd&#45;&gt;plot_file_3a061643d8206978548bb2fb3310a5a3 -->
<g id="edge22" class="edge">
<title>poisson_output_pvd_file_b0763c123b16574f635e6fd1d2588acd-&gt;plot_file_3a061643d8206978548bb2fb3310a5a3</title>
<path fill="none" stroke="black" d="M1433.21,-217.75C1248.56,-206.05 994.86,-189.98 810.13,-178.28"/>
<polygon fill="black" stroke="black" points="810.61,-174.8 800.4,-177.66 810.16,-181.78 810.61,-174.8"/>
</g>
<!-- poisson_output_pvd_file_b0763c123b16574f635e6fd1d2588acd&#45;&gt;pvbatch_output_file_3a061643d8206978548bb2fb3310a5a3 -->
<g id="edge23" class="edge">
<title>poisson_output_pvd_file_b0763c123b16574f635e6fd1d2588acd-&gt;pvbatch_output_file_3a061643d8206978548bb2fb3310a5a3</title>
<path fill="none" stroke="black" d="M1630.25,-215.7C1606.42,-206.27 1576.72,-194.53 1551.41,-184.52"/>
<polygon fill="black" stroke="black" points="1552.86,-181.33 1542.27,-180.9 1550.28,-187.84 1552.86,-181.33"/>
</g>
<!-- ndofs_b2794be0c287cab94402b5ae465882a9&#45;&gt;macros_tex_a75af4b3c6dc43ab5ecde0e4202f9977 -->
<g id="edge25" class="edge">
<title>ndofs_b2794be0c287cab94402b5ae465882a9-&gt;macros_tex_a75af4b3c6dc43ab5ecde0e4202f9977</title>
<path fill="none" stroke="black" d="M2503.43,-216.17C2379.12,-197.35 2170.24,-166.56 1990,-144 1884.73,-130.83 1766.56,-118.05 1672.31,-108.35"/>
<polygon fill="black" stroke="black" points="1672.75,-104.88 1662.44,-107.34 1672.03,-111.84 1672.75,-104.88"/>
</g>
<!-- gmsh_output_file_9c2d31d4ceded6e3d23ff779cc598b24 -->
<g id="node8" class="node">
<title>gmsh_output_file_9c2d31d4ceded6e3d23ff779cc598b24</title>
<ellipse fill="none" stroke="black" cx="1561" cy="-378" rx="472.62" ry="18"/>
<text xml:space="preserve" text-anchor="middle" x="1561" y="-373.32" font-family="Times,serif" font-size="14.00">gmsh_output_file=&lt;pyiron_base.project.delayed.DelayedObject object at 0x7a0f75a79370&gt;</text>
</g>
<!-- gmsh_output_file_9c2d31d4ceded6e3d23ff779cc598b24&#45;&gt;meshio_output_h5_657e934b934c9ab889bf8adff36fe90a -->
<g id="edge7" class="edge">
<title>gmsh_output_file_9c2d31d4ceded6e3d23ff779cc598b24-&gt;meshio_output_h5_657e934b934c9ab889bf8adff36fe90a</title>
<path fill="none" stroke="black" d="M1680.27,-360.1C1754.15,-349.63 1849.08,-336.18 1924.9,-325.44"/>
<polygon fill="black" stroke="black" points="1925.03,-328.95 1934.44,-324.08 1924.05,-322.02 1925.03,-328.95"/>
</g>
<!-- meshio_output_xdmf_2f698a727774133554270f15e807a24e -->
<g id="node9" class="node">
<title>meshio_output_xdmf_2f698a727774133554270f15e807a24e</title>
<ellipse fill="none" stroke="black" cx="1068" cy="-306" rx="491.04" ry="18"/>
<text xml:space="preserve" text-anchor="middle" x="1068" y="-301.32" font-family="Times,serif" font-size="14.00">meshio_output_xdmf=&lt;pyiron_base.project.delayed.DelayedObject object at 0x7a0f75a79580&gt;</text>
</g>
<!-- gmsh_output_file_9c2d31d4ceded6e3d23ff779cc598b24&#45;&gt;meshio_output_xdmf_2f698a727774133554270f15e807a24e -->
<g id="edge8" class="edge">
<title>gmsh_output_file_9c2d31d4ceded6e3d23ff779cc598b24-&gt;meshio_output_xdmf_2f698a727774133554270f15e807a24e</title>
<path fill="none" stroke="black" d="M1441.97,-360.1C1368.37,-349.65 1273.85,-336.23 1198.26,-325.49"/>
<polygon fill="black" stroke="black" points="1199.14,-322.08 1188.74,-324.14 1198.15,-329.02 1199.14,-322.08"/>
</g>
<!-- meshio_output_xdmf_2f698a727774133554270f15e807a24e&#45;&gt;poisson_output_vtu_file_d0aca254604285d4bdb8ec716c489841 -->
<g id="edge19" class="edge">
<title>meshio_output_xdmf_2f698a727774133554270f15e807a24e-&gt;poisson_output_vtu_file_d0aca254604285d4bdb8ec716c489841</title>
<path fill="none" stroke="black" d="M965.04,-287.92C903.12,-277.65 824.21,-264.56 760.36,-253.97"/>
<polygon fill="black" stroke="black" points="760.96,-250.52 750.52,-252.34 759.81,-257.43 760.96,-250.52"/>
</g>
<!-- meshio_output_xdmf_2f698a727774133554270f15e807a24e&#45;&gt;poisson_output_pvd_file_b0763c123b16574f635e6fd1d2588acd -->
<g id="edge20" class="edge">
<title>meshio_output_xdmf_2f698a727774133554270f15e807a24e-&gt;poisson_output_pvd_file_b0763c123b16574f635e6fd1d2588acd</title>
<path fill="none" stroke="black" d="M1212.38,-288.32C1304.47,-277.68 1423.79,-263.9 1518.05,-253.01"/>
<polygon fill="black" stroke="black" points="1518.38,-256.5 1527.91,-251.88 1517.57,-249.55 1518.38,-256.5"/>
</g>
<!-- meshio_output_xdmf_2f698a727774133554270f15e807a24e&#45;&gt;ndofs_b2794be0c287cab94402b5ae465882a9 -->
<g id="edge21" class="edge">
<title>meshio_output_xdmf_2f698a727774133554270f15e807a24e-&gt;ndofs_b2794be0c287cab94402b5ae465882a9</title>
<path fill="none" stroke="black" d="M1368.64,-291.38C1644.2,-278.89 2049.59,-260.53 2322.05,-248.18"/>
<polygon fill="black" stroke="black" points="2321.96,-251.69 2331.79,-247.74 2321.65,-244.7 2321.96,-251.69"/>
</g>
<!-- domain_size_f12a7f1986b9dd058dfc666dbe230b20 -->
<g id="node10" class="node">
<title>domain_size_f12a7f1986b9dd058dfc666dbe230b20</title>
<ellipse fill="none" stroke="black" cx="2308" cy="-450" rx="96.45" ry="18"/>
<text xml:space="preserve" text-anchor="middle" x="2308" y="-445.32" font-family="Times,serif" font-size="14.00">domain_size=2.0</text>
</g>
<!-- domain_size_f12a7f1986b9dd058dfc666dbe230b20&#45;&gt;gmsh_output_file_9c2d31d4ceded6e3d23ff779cc598b24 -->
<g id="edge9" class="edge">
<title>domain_size_f12a7f1986b9dd058dfc666dbe230b20-&gt;gmsh_output_file_9c2d31d4ceded6e3d23ff779cc598b24</title>
<path fill="none" stroke="black" d="M2223.4,-441.07C2107.97,-430.26 1898.05,-410.58 1745.39,-396.28"/>
<polygon fill="black" stroke="black" points="1745.83,-392.8 1735.54,-395.36 1745.17,-399.77 1745.83,-392.8"/>
</g>
<!-- domain_size_f12a7f1986b9dd058dfc666dbe230b20&#45;&gt;macros_tex_a75af4b3c6dc43ab5ecde0e4202f9977 -->
<g id="edge10" class="edge">
<title>domain_size_f12a7f1986b9dd058dfc666dbe230b20-&gt;macros_tex_a75af4b3c6dc43ab5ecde0e4202f9977</title>
<path fill="none" stroke="black" d="M2394.17,-441.59C2590.86,-423.51 3056,-373.71 3056,-307 3056,-307 3056,-307 3056,-233 3056,-221.67 3047.41,-220.47 3037,-216 2845.24,-133.69 2317.71,-105.26 1933.39,-95.62"/>
<polygon fill="black" stroke="black" points="1933.66,-92.12 1923.58,-95.38 1933.49,-99.12 1933.66,-92.12"/>
</g>
<!-- macros_tex_a75af4b3c6dc43ab5ecde0e4202f9977&#45;&gt;create_function_job_fe3f74611c4e73a2167d357a2d0ed4c0 -->
<g id="edge24" class="edge">
<title>macros_tex_a75af4b3c6dc43ab5ecde0e4202f9977-&gt;create_function_job_fe3f74611c4e73a2167d357a2d0ed4c0</title>
<path fill="none" stroke="black" d="M1292.77,-73.59C1143.48,-62.33 941.26,-47.08 788.52,-35.56"/>
<polygon fill="black" stroke="black" points="788.89,-32.08 778.65,-34.81 788.36,-39.06 788.89,-32.08"/>
</g>
<!-- source_directory_8c1956470a985919d1bf6df6988792b3 -->
<g id="node12" class="node">
<title>source_directory_8c1956470a985919d1bf6df6988792b3</title>
<ellipse fill="none" stroke="black" cx="338" cy="-450" rx="205.88" ry="18"/>
<text xml:space="preserve" text-anchor="middle" x="338" y="-445.32" font-family="Times,serif" font-size="14.00">source_directory=/home/jovyan/source</text>
</g>
<!-- source_directory_8c1956470a985919d1bf6df6988792b3&#45;&gt;create_function_job_fe3f74611c4e73a2167d357a2d0ed4c0 -->
<g id="edge11" class="edge">
<title>source_directory_8c1956470a985919d1bf6df6988792b3-&gt;create_function_job_fe3f74611c4e73a2167d357a2d0ed4c0</title>
<path fill="none" stroke="black" d="M196.9,-436.53C132.46,-428.35 64.97,-415.47 40,-396 5.8,-369.34 0,-350.37 0,-307 0,-307 0,-307 0,-161 0,-88.91 174.09,-53.13 329.68,-35.54"/>
<polygon fill="black" stroke="black" points="329.79,-39.05 339.34,-34.47 329.02,-32.09 329.79,-39.05"/>
</g>
<!-- source_directory_8c1956470a985919d1bf6df6988792b3&#45;&gt;plot_file_3a061643d8206978548bb2fb3310a5a3 -->
<g id="edge12" class="edge">
<title>source_directory_8c1956470a985919d1bf6df6988792b3-&gt;plot_file_3a061643d8206978548bb2fb3310a5a3</title>
<path fill="none" stroke="black" d="M212.51,-435.38C163.3,-427.23 114.99,-414.7 100,-396 49.96,-333.59 46.7,-275.66 100,-216 115.46,-198.7 209.03,-186.33 308.58,-177.92"/>
<polygon fill="black" stroke="black" points="308.61,-181.43 318.28,-177.12 308.03,-174.45 308.61,-181.43"/>
</g>
<!-- source_directory_8c1956470a985919d1bf6df6988792b3&#45;&gt;poisson_output_vtu_file_d0aca254604285d4bdb8ec716c489841 -->
<g id="edge13" class="edge">
<title>source_directory_8c1956470a985919d1bf6df6988792b3-&gt;poisson_output_vtu_file_d0aca254604285d4bdb8ec716c489841</title>
<path fill="none" stroke="black" d="M349.07,-431.75C370.94,-399.01 422.89,-327.62 484,-288 505.52,-274.05 531.04,-263.47 555.38,-255.58"/>
<polygon fill="black" stroke="black" points="556.14,-259.01 564.65,-252.7 554.06,-252.32 556.14,-259.01"/>
</g>
<!-- source_directory_8c1956470a985919d1bf6df6988792b3&#45;&gt;pvbatch_output_file_3a061643d8206978548bb2fb3310a5a3 -->
<g id="edge18" class="edge">
<title>source_directory_8c1956470a985919d1bf6df6988792b3-&gt;pvbatch_output_file_3a061643d8206978548bb2fb3310a5a3</title>
<path fill="none" stroke="black" d="M302.71,-431.87C226.28,-392.68 58.11,-293.86 133,-216 137.37,-211.46 738.1,-189.56 1140.78,-175.37"/>
<polygon fill="black" stroke="black" points="1140.65,-178.87 1150.52,-175.02 1140.41,-171.88 1140.65,-178.87"/>
</g>
<!-- source_directory_8c1956470a985919d1bf6df6988792b3&#45;&gt;poisson_output_pvd_file_b0763c123b16574f635e6fd1d2588acd -->
<g id="edge15" class="edge">
<title>source_directory_8c1956470a985919d1bf6df6988792b3-&gt;poisson_output_pvd_file_b0763c123b16574f635e6fd1d2588acd</title>
<path fill="none" stroke="black" d="M359.22,-431.81C406.87,-393.61 521.76,-303.8 568,-288 603.21,-275.97 1000.42,-259.1 1308.86,-247.65"/>
<polygon fill="black" stroke="black" points="1308.88,-251.15 1318.74,-247.29 1308.62,-244.16 1308.88,-251.15"/>
</g>
<!-- source_directory_8c1956470a985919d1bf6df6988792b3&#45;&gt;ndofs_b2794be0c287cab94402b5ae465882a9 -->
<g id="edge17" class="edge">
<title>source_directory_8c1956470a985919d1bf6df6988792b3-&gt;ndofs_b2794be0c287cab94402b5ae465882a9</title>
<path fill="none" stroke="black" d="M538.1,-445.6C923.63,-438.59 1756.55,-421.04 2043,-396 2266.22,-376.49 2347.58,-435.41 2542,-324 2567.09,-309.62 2586.69,-282.62 2598.88,-262.11"/>
<polygon fill="black" stroke="black" points="2601.77,-264.1 2603.67,-253.68 2595.68,-260.64 2601.77,-264.1"/>
</g>
<!-- source_directory_8c1956470a985919d1bf6df6988792b3&#45;&gt;gmsh_output_file_9c2d31d4ceded6e3d23ff779cc598b24 -->
<g id="edge14" class="edge">
<title>source_directory_8c1956470a985919d1bf6df6988792b3-&gt;gmsh_output_file_9c2d31d4ceded6e3d23ff779cc598b24</title>
<path fill="none" stroke="black" d="M506.45,-439.36C710.12,-427.7 1055.34,-407.94 1295.08,-394.22"/>
<polygon fill="black" stroke="black" points="1295.12,-397.72 1304.9,-393.66 1294.72,-390.74 1295.12,-397.72"/>
</g>
<!-- source_directory_8c1956470a985919d1bf6df6988792b3&#45;&gt;macros_tex_a75af4b3c6dc43ab5ecde0e4202f9977 -->
<g id="edge16" class="edge">
<title>source_directory_8c1956470a985919d1bf6df6988792b3-&gt;macros_tex_a75af4b3c6dc43ab5ecde0e4202f9977</title>
<path fill="none" stroke="black" d="M211.73,-435.37C154.41,-426.89 94.63,-414.1 73,-396 40.4,-368.72 38,-349.5 38,-307 38,-307 38,-307 38,-233 38,-174.82 80.26,-166.29 134,-144 217.22,-109.48 683.11,-97.27 1047.33,-93.05"/>
<polygon fill="black" stroke="black" points="1047.14,-96.55 1057.1,-92.94 1047.06,-89.55 1047.14,-96.55"/>
</g>
</g>
</svg>