<svg xmlns="http://www.w3.org/2000/svg" xmlns:xlink="http://www.w3.org/1999/xlink" width="1537pt" height="2930pt" viewBox="0.00 0.00 1537.03 2930.16">
<g id="graph0" class="graph" transform="scale(1 1) rotate(0) translate(4 2926.16)">
<polygon fill="white" stroke="none" points="-4,4 -4,-2926.16 1533.03,-2926.16 1533.03,4 -4,4"/>
<!-- 0 -->
<g id="node1" class="node">
<title>0</title>
<polygon fill="none" stroke="black" points="1177.39,-2362.62 1079.64,-2362.62 1079.64,-2326.62 1177.39,-2326.62 1177.39,-2362.62"/>
<text text-anchor="middle" x="1128.52" y="-2339.57" font-family="Times,serif" font-size="14.00">generate_mesh</text>
</g>
<!-- 1 -->
<g id="node2" class="node">
<title>1</title>
<polygon fill="none" stroke="black" points="1183.39,-2038.61 1073.64,-2038.61 1073.64,-2002.61 1183.39,-2002.61 1183.39,-2038.61"/>
<text text-anchor="middle" x="1128.52" y="-2015.56" font-family="Times,serif" font-size="14.00">convert_to_xdmf</text>
</g>
<!-- 0&#45;&gt;1 -->
<g id="edge1" class="edge">
<title>0-&gt;1</title>
<path fill="none" stroke="black" d="M1128.52,-2326.31C1128.52,-2273.78 1128.52,-2115.84 1128.52,-2050.45"/>
<polygon fill="black" stroke="black" points="1132.02,-2050.52 1128.52,-2040.52 1125.02,-2050.52 1132.02,-2050.52"/>
<text text-anchor="middle" x="1176.52" y="-2295.32" font-family="Times,serif" font-size="14.00">gmsh_output_file</text>
</g>
<!-- 2 -->
<g id="node3" class="node">
<title>2</title>
<polygon fill="none" stroke="black" points="941.14,-1479.08 883.89,-1479.08 883.89,-1443.08 941.14,-1443.08 941.14,-1479.08"/>
<text text-anchor="middle" x="912.52" y="-1456.03" font-family="Times,serif" font-size="14.00">poisson</text>
</g>
<!-- 1&#45;&gt;2 -->
<g id="edge2" class="edge">
<title>1-&gt;2</title>
<path fill="none" stroke="black" d="M1125.57,-2002.38C1118.22,-1960.96 1097.29,-1852.89 1065.52,-1767.09 1025.86,-1660.03 959.2,-1541.3 928.67,-1489.15"/>
<polygon fill="black" stroke="black" points="931.75,-1487.49 923.66,-1480.65 925.72,-1491.04 931.75,-1487.49"/>
<text text-anchor="middle" x="1125.27" y="-1735.79" font-family="Times,serif" font-size="14.00">meshio_output_h5h5_file</text>
</g>
<!-- 3 -->
<g id="node4" class="node">
<title>3</title>
<polygon fill="none" stroke="black" points="551.89,-919.55 457.14,-919.55 457.14,-883.55 551.89,-883.55 551.89,-919.55"/>
<text text-anchor="middle" x="504.52" y="-896.5" font-family="Times,serif" font-size="14.00">plot_over_line</text>
</g>
<!-- 2&#45;&gt;3 -->
<g id="edge3" class="edge">
<title>2-&gt;3</title>
<path fill="none" stroke="black" d="M907.78,-1442.82C894.24,-1396.87 850.89,-1270.81 767.52,-1207.56 748.61,-1193.22 577.04,-1172.09 560.52,-1155.06 500.74,-1093.45 499.01,-983.04 501.97,-931.07"/>
<polygon fill="black" stroke="black" points="505.45,-931.48 502.64,-921.26 498.47,-931 505.45,-931.48"/>
<text text-anchor="middle" x="783.14" y="-1176.26" font-family="Times,serif" font-size="14.00">poisson_output_vtu_filevtu_file</text>
</g>
<!-- 4 -->
<g id="node5" class="node">
<title>4</title>
<polygon fill="none" stroke="black" points="880.64,-360.02 766.39,-360.02 766.39,-324.02 880.64,-324.02 880.64,-360.02"/>
<text text-anchor="middle" x="823.52" y="-336.97" font-family="Times,serif" font-size="14.00">substitute_macros</text>
</g>
<!-- 2&#45;&gt;4 -->
<g id="edge4" class="edge">
<title>2-&gt;4</title>
<path fill="none" stroke="black" d="M926.93,-1442.64C962.62,-1398.19 1054.56,-1275.57 1086.52,-1155.06 1115.4,-1046.15 1125.76,-753.65 1086.52,-648.03 1039.82,-522.36 915.53,-413.83 856.08,-367.27"/>
<polygon fill="black" stroke="black" points="858.37,-364.61 848.32,-361.26 854.08,-370.15 858.37,-364.61"/>
<text text-anchor="middle" x="1150.52" y="-896.5" font-family="Times,serif" font-size="14.00">ndofsnumdofs</text>
</g>
<!-- 3&#45;&gt;4 -->
<g id="edge5" class="edge">
<title>3-&gt;4</title>
<path fill="none" stroke="black" d="M505.45,-883.35C508.33,-841.1 519.55,-729.71 560.52,-648.03 592.4,-584.46 739.69,-429.31 798.83,-368.28"/>
<polygon fill="black" stroke="black" points="801.06,-371.01 805.52,-361.39 796.04,-366.13 801.06,-371.01"/>
<text text-anchor="middle" x="636.89" y="-616.73" font-family="Times,serif" font-size="14.00">pvbatch_output_file</text>
</g>
<!-- 5 -->
<g id="node6" class="node">
<title>5</title>
<polygon fill="none" stroke="black" points="592.02,-36 495.02,-36 495.02,0 592.02,0 592.02,-36"/>
<text text-anchor="middle" x="543.52" y="-12.95" font-family="Times,serif" font-size="14.00">compile_paper</text>
</g>
<!-- 3&#45;&gt;5 -->
<g id="edge6" class="edge">
<title>3-&gt;5</title>
<path fill="none" stroke="black" d="M505.28,-883.33C510.08,-774.72 536.19,-184.61 542.26,-47.48"/>
<polygon fill="black" stroke="black" points="545.74,-47.98 542.68,-37.84 538.74,-47.67 545.74,-47.98"/>
<text text-anchor="middle" x="563.39" y="-336.97" font-family="Times,serif" font-size="14.00">plot_file</text>
</g>
<!-- 4&#45;&gt;5 -->
<g id="edge7" class="edge">
<title>4-&gt;5</title>
<path fill="none" stroke="black" d="M808.46,-323.7C762.12,-270.41 621.43,-108.61 566.16,-45.04"/>
<polygon fill="black" stroke="black" points="568.84,-42.79 559.64,-37.54 563.56,-47.38 568.84,-42.79"/>
<text text-anchor="middle" x="616.02" y="-57.2" font-family="Times,serif" font-size="14.00">macros_tex</text>
</g>
<!-- 6 -->
<g id="node7" class="node">
<title>6</title>
<ellipse fill="none" stroke="black" cx="981.52" cy="-2668.64" rx="22.69" ry="22.69"/>
<text text-anchor="middle" x="981.52" y="-2663.59" font-family="Times,serif" font-size="14.00">2.0</text>
</g>
<!-- 6&#45;&gt;0 -->
<g id="edge8" class="edge">
<title>6-&gt;0</title>
<path fill="none" stroke="black" d="M978.23,-2645.92C972.37,-2599.4 964.84,-2488.44 1012.52,-2415.12 1025.93,-2394.49 1047.82,-2379.1 1068.98,-2368.12"/>
<polygon fill="black" stroke="black" points="1070.47,-2371.29 1077.92,-2363.75 1067.4,-2365 1070.47,-2371.29"/>
<text text-anchor="middle" x="1080.02" y="-2383.82" font-family="Times,serif" font-size="14.00">domain_size</text>
</g>
<!-- 7 -->
<g id="node8" class="node">
<title>7</title>
<ellipse fill="none" stroke="black" cx="1275.52" cy="-2668.64" rx="253.52" ry="253.52"/>
<text text-anchor="middle" x="1275.52" y="-2663.59" font-family="Times,serif" font-size="14.00">/home/jan/notebooks/2025/2025-12-26-pyiron-executorlib/source</text>
</g>
<!-- 7&#45;&gt;0 -->
<g id="edge9" class="edge">
<title>7-&gt;0</title>
<path fill="none" stroke="black" d="M1170.44,-2437.47C1158.88,-2412.14 1148.6,-2389.63 1141.12,-2373.23"/>
<polygon fill="black" stroke="black" points="1144.37,-2371.92 1137.03,-2364.28 1138,-2374.83 1144.37,-2371.92"/>
<text text-anchor="middle" x="1194.89" y="-2383.82" font-family="Times,serif" font-size="14.00">source_directory</text>
</g>
<!-- 8 -->
<g id="node9" class="node">
<title>8</title>
<ellipse fill="none" stroke="black" cx="802.52" cy="-2020.61" rx="253.52" ry="253.52"/>
<text text-anchor="middle" x="802.52" y="-2015.56" font-family="Times,serif" font-size="14.00">/home/jan/notebooks/2025/2025-12-26-pyiron-executorlib/source</text>
</g>
<!-- 8&#45;&gt;2 -->
<g id="edge10" class="edge">
<title>8-&gt;2</title>
<path fill="none" stroke="black" d="M851.48,-1771.42C873.35,-1660.61 896.49,-1543.28 906.89,-1490.6"/>
<polygon fill="black" stroke="black" points="910.28,-1491.47 908.79,-1480.98 903.42,-1490.12 910.28,-1491.47"/>
<text text-anchor="middle" x="902.89" y="-1735.79" font-family="Times,serif" font-size="14.00">source_directory</text>
</g>
<!-- 9 -->
<g id="node10" class="node">
<title>9</title>
<ellipse fill="none" stroke="black" cx="504.52" cy="-1461.08" rx="253.52" ry="253.52"/>
<text text-anchor="middle" x="504.52" y="-1456.03" font-family="Times,serif" font-size="14.00">/home/jan/notebooks/2025/2025-12-26-pyiron-executorlib/source</text>
</g>
<!-- 9&#45;&gt;3 -->
<g id="edge11" class="edge">
<title>9-&gt;3</title>
<path fill="none" stroke="black" d="M504.52,-1207.41C504.52,-1098.05 504.52,-983.29 504.52,-931.23"/>
<polygon fill="black" stroke="black" points="508.02,-931.47 504.52,-921.47 501.02,-931.47 508.02,-931.47"/>
<text text-anchor="middle" x="549.89" y="-1176.26" font-family="Times,serif" font-size="14.00">source_directory</text>
</g>
<!-- 10 -->
<g id="node11" class="node">
<title>10</title>
<ellipse fill="none" stroke="black" cx="1232.52" cy="-901.55" rx="22.69" ry="22.69"/>
<text text-anchor="middle" x="1232.52" y="-896.5" font-family="Times,serif" font-size="14.00">2.0</text>
</g>
<!-- 10&#45;&gt;4 -->
<g id="edge12" class="edge">
<title>10-&gt;4</title>
<path fill="none" stroke="black" d="M1234.37,-878.6C1237.23,-832.59 1238.49,-724.01 1195.52,-648.03 1117.25,-509.65 949.69,-408.42 868.91,-365.6"/>
<polygon fill="black" stroke="black" points="870.86,-362.67 860.37,-361.13 867.61,-368.87 870.86,-362.67"/>
<text text-anchor="middle" x="1216.02" y="-616.73" font-family="Times,serif" font-size="14.00">domain_size</text>
</g>
<!-- 11 -->
<g id="node12" class="node">
<title>11</title>
<ellipse fill="none" stroke="black" cx="823.52" cy="-901.55" rx="253.52" ry="253.52"/>
<text text-anchor="middle" x="823.52" y="-896.5" font-family="Times,serif" font-size="14.00">/home/jan/notebooks/2025/2025-12-26-pyiron-executorlib/source</text>
</g>
<!-- 11&#45;&gt;4 -->
<g id="edge13" class="edge">
<title>11-&gt;4</title>
<path fill="none" stroke="black" d="M823.52,-647.88C823.52,-538.52 823.52,-423.76 823.52,-371.7"/>
<polygon fill="black" stroke="black" points="827.02,-371.94 823.52,-361.94 820.02,-371.94 827.02,-371.94"/>
<text text-anchor="middle" x="868.89" y="-616.73" font-family="Times,serif" font-size="14.00">source_directory</text>
</g>
<!-- 12 -->
<g id="node13" class="node">
<title>12</title>
<ellipse fill="none" stroke="black" cx="253.52" cy="-342.02" rx="253.52" ry="253.52"/>
<text text-anchor="middle" x="253.52" y="-336.97" font-family="Times,serif" font-size="14.00">/home/jan/notebooks/2025/2025-12-26-pyiron-executorlib/source</text>
</g>
<!-- 12&#45;&gt;5 -->
<g id="edge14" class="edge">
<title>12-&gt;5</title>
<path fill="none" stroke="black" d="M374.25,-118.6C393.57,-94.65 415.11,-72.36 438.77,-54 451.87,-43.83 468.09,-36.53 483.81,-31.33"/>
<polygon fill="black" stroke="black" points="484.58,-34.76 493.12,-28.5 482.54,-28.06 484.58,-34.76"/>
<text text-anchor="middle" x="484.89" y="-57.2" font-family="Times,serif" font-size="14.00">source_directory</text>
</g>
</g>
</svg>