<svg xmlns="http://www.w3.org/2000/svg" xmlns:xlink="http://www.w3.org/1999/xlink" width="2509pt" height="476pt" viewBox="0.00 0.00 2509.00 476.00">
<g id="graph0" class="graph" transform="scale(1 1) rotate(0) translate(4 472)">
<polygon fill="white" stroke="none" points="-4,4 -4,-472 2504.74,-472 2504.74,4 -4,4"/>
<!-- create_function_job_9d0b52faccd24a95ae427a9460007774 -->
<g id="node1" class="node">
<title>create_function_job_9d0b52faccd24a95ae427a9460007774</title>
<ellipse fill="none" stroke="black" cx="1883" cy="-18" rx="362.53" ry="18"/>
<text xml:space="preserve" text-anchor="middle" x="1883" y="-12.95" font-family="Times,serif" font-size="14.00">create_function_job=&lt;pyiron_base.project.delayed.DelayedObject object at 0x7f0e0c211880&gt;</text>
</g>
<!-- macros_tex_a92b5d7ec8ee274114fdcb75cb9cea1d -->
<g id="node2" class="node">
<title>macros_tex_a92b5d7ec8ee274114fdcb75cb9cea1d</title>
<ellipse fill="none" stroke="black" cx="1183" cy="-90" rx="331.82" ry="18"/>
<text xml:space="preserve" text-anchor="middle" x="1183" y="-84.95" font-family="Times,serif" font-size="14.00">macros_tex=&lt;pyiron_base.project.delayed.DelayedObject object at 0x7f0e0c211610&gt;</text>
</g>
<!-- macros_tex_a92b5d7ec8ee274114fdcb75cb9cea1d&#45;&gt;create_function_job_9d0b52faccd24a95ae427a9460007774 -->
<g id="edge1" class="edge">
<title>macros_tex_a92b5d7ec8ee274114fdcb75cb9cea1d-&gt;create_function_job_9d0b52faccd24a95ae427a9460007774</title>
<path fill="none" stroke="black" d="M1336.62,-73.64C1448.5,-62.45 1599.96,-47.3 1715.04,-35.8"/>
<polygon fill="black" stroke="black" points="1715.3,-39.29 1724.91,-34.81 1714.61,-32.32 1715.3,-39.29"/>
</g>
<!-- pvbatch_output_file_1039cafd3dd0921b24c2bef636b8135f -->
<g id="node3" class="node">
<title>pvbatch_output_file_1039cafd3dd0921b24c2bef636b8135f</title>
<ellipse fill="none" stroke="black" cx="1183" cy="-162" rx="362.53" ry="18"/>
<text xml:space="preserve" text-anchor="middle" x="1183" y="-156.95" font-family="Times,serif" font-size="14.00">pvbatch_output_file=&lt;pyiron_base.project.delayed.DelayedObject object at 0x7f0e0c2112e0&gt;</text>
</g>
<!-- pvbatch_output_file_1039cafd3dd0921b24c2bef636b8135f&#45;&gt;macros_tex_a92b5d7ec8ee274114fdcb75cb9cea1d -->
<g id="edge2" class="edge">
<title>pvbatch_output_file_1039cafd3dd0921b24c2bef636b8135f-&gt;macros_tex_a92b5d7ec8ee274114fdcb75cb9cea1d</title>
<path fill="none" stroke="black" d="M1183,-143.7C1183,-136.41 1183,-127.73 1183,-119.54"/>
<polygon fill="black" stroke="black" points="1186.5,-119.62 1183,-109.62 1179.5,-119.62 1186.5,-119.62"/>
</g>
<!-- poisson_output_pvd_file_3ecb903e960d72304cfd8ec39e449e3c -->
<g id="node4" class="node">
<title>poisson_output_pvd_file_3ecb903e960d72304cfd8ec39e449e3c</title>
<ellipse fill="none" stroke="black" cx="1815" cy="-234" rx="378.91" ry="18"/>
<text xml:space="preserve" text-anchor="middle" x="1815" y="-228.95" font-family="Times,serif" font-size="14.00">poisson_output_pvd_file=&lt;pyiron_base.project.delayed.DelayedObject object at 0x7f0e0c210f80&gt;</text>
</g>
<!-- poisson_output_pvd_file_3ecb903e960d72304cfd8ec39e449e3c&#45;&gt;pvbatch_output_file_1039cafd3dd0921b24c2bef636b8135f -->
<g id="edge3" class="edge">
<title>poisson_output_pvd_file_3ecb903e960d72304cfd8ec39e449e3c-&gt;pvbatch_output_file_1039cafd3dd0921b24c2bef636b8135f</title>
<path fill="none" stroke="black" d="M1670.01,-216.94C1570.86,-205.96 1439.58,-191.42 1338.31,-180.2"/>
<polygon fill="black" stroke="black" points="1338.87,-176.74 1328.55,-179.12 1338.1,-183.7 1338.87,-176.74"/>
</g>
<!-- plot_file_1039cafd3dd0921b24c2bef636b8135f -->
<g id="node5" class="node">
<title>plot_file_1039cafd3dd0921b24c2bef636b8135f</title>
<ellipse fill="none" stroke="black" cx="1883" cy="-162" rx="319.54" ry="18"/>
<text xml:space="preserve" text-anchor="middle" x="1883" y="-156.95" font-family="Times,serif" font-size="14.00">plot_file=&lt;pyiron_base.project.delayed.DelayedObject object at 0x7f0e0c2112e0&gt;</text>
</g>
<!-- poisson_output_pvd_file_3ecb903e960d72304cfd8ec39e449e3c&#45;&gt;plot_file_1039cafd3dd0921b24c2bef636b8135f -->
<g id="edge4" class="edge">
<title>poisson_output_pvd_file_3ecb903e960d72304cfd8ec39e449e3c-&gt;plot_file_1039cafd3dd0921b24c2bef636b8135f</title>
<path fill="none" stroke="black" d="M1831.81,-215.7C1839.88,-207.39 1849.7,-197.28 1858.58,-188.14"/>
<polygon fill="black" stroke="black" points="1860.87,-190.8 1865.33,-181.19 1855.85,-185.92 1860.87,-190.8"/>
</g>
<!-- plot_file_1039cafd3dd0921b24c2bef636b8135f&#45;&gt;create_function_job_9d0b52faccd24a95ae427a9460007774 -->
<g id="edge26" class="edge">
<title>plot_file_1039cafd3dd0921b24c2bef636b8135f-&gt;create_function_job_9d0b52faccd24a95ae427a9460007774</title>
<path fill="none" stroke="black" d="M1883,-143.59C1883,-119.61 1883,-76.14 1883,-47.42"/>
<polygon fill="black" stroke="black" points="1886.5,-47.62 1883,-37.62 1879.5,-47.62 1886.5,-47.62"/>
</g>
<!-- meshio_output_xdmf_ec4b28d599e591e71a8c17027ba85e66 -->
<g id="node6" class="node">
<title>meshio_output_xdmf_ec4b28d599e591e71a8c17027ba85e66</title>
<ellipse fill="none" stroke="black" cx="892" cy="-306" rx="368.16" ry="18"/>
<text xml:space="preserve" text-anchor="middle" x="892" y="-300.95" font-family="Times,serif" font-size="14.00">meshio_output_xdmf=&lt;pyiron_base.project.delayed.DelayedObject object at 0x7f0e0c210bc0&gt;</text>
</g>
<!-- meshio_output_xdmf_ec4b28d599e591e71a8c17027ba85e66&#45;&gt;poisson_output_pvd_file_3ecb903e960d72304cfd8ec39e449e3c -->
<g id="edge5" class="edge">
<title>meshio_output_xdmf_ec4b28d599e591e71a8c17027ba85e66-&gt;poisson_output_pvd_file_3ecb903e960d72304cfd8ec39e449e3c</title>
<path fill="none" stroke="black" d="M1086.05,-290.28C1239.16,-278.67 1452.23,-262.51 1608.47,-250.66"/>
<polygon fill="black" stroke="black" points="1608.4,-254.18 1618.11,-249.93 1607.87,-247.2 1608.4,-254.18"/>
</g>
<!-- poisson_output_vtu_file_046bd2b27bca836bf8411182c636d22f -->
<g id="node7" class="node">
<title>poisson_output_vtu_file_046bd2b27bca836bf8411182c636d22f</title>
<ellipse fill="none" stroke="black" cx="1041" cy="-234" rx="376.86" ry="18"/>
<text xml:space="preserve" text-anchor="middle" x="1041" y="-228.95" font-family="Times,serif" font-size="14.00">poisson_output_vtu_file=&lt;pyiron_base.project.delayed.DelayedObject object at 0x7f0e0c210f50&gt;</text>
</g>
<!-- meshio_output_xdmf_ec4b28d599e591e71a8c17027ba85e66&#45;&gt;poisson_output_vtu_file_046bd2b27bca836bf8411182c636d22f -->
<g id="edge6" class="edge">
<title>meshio_output_xdmf_ec4b28d599e591e71a8c17027ba85e66-&gt;poisson_output_vtu_file_046bd2b27bca836bf8411182c636d22f</title>
<path fill="none" stroke="black" d="M928.83,-287.7C948.44,-278.48 972.78,-267.05 993.76,-257.19"/>
<polygon fill="black" stroke="black" points="995.14,-260.41 1002.71,-252.99 992.17,-254.07 995.14,-260.41"/>
</g>
<!-- ndofs_80b0d3bf3c4c4309680b587a6d24c7ab -->
<g id="node8" class="node">
<title>ndofs_80b0d3bf3c4c4309680b587a6d24c7ab</title>
<ellipse fill="none" stroke="black" cx="337" cy="-234" rx="309.3" ry="18"/>
<text xml:space="preserve" text-anchor="middle" x="337" y="-228.95" font-family="Times,serif" font-size="14.00">ndofs=&lt;pyiron_base.project.delayed.DelayedObject object at 0x7f0e0c211370&gt;</text>
</g>
<!-- meshio_output_xdmf_ec4b28d599e591e71a8c17027ba85e66&#45;&gt;ndofs_80b0d3bf3c4c4309680b587a6d24c7ab -->
<g id="edge7" class="edge">
<title>meshio_output_xdmf_ec4b28d599e591e71a8c17027ba85e66-&gt;ndofs_80b0d3bf3c4c4309680b587a6d24c7ab</title>
<path fill="none" stroke="black" d="M762.93,-288.72C676.32,-277.8 562.37,-263.43 474.13,-252.3"/>
<polygon fill="black" stroke="black" points="474.82,-248.85 464.46,-251.08 473.94,-255.8 474.82,-248.85"/>
</g>
<!-- poisson_output_vtu_file_046bd2b27bca836bf8411182c636d22f&#45;&gt;pvbatch_output_file_1039cafd3dd0921b24c2bef636b8135f -->
<g id="edge23" class="edge">
<title>poisson_output_vtu_file_046bd2b27bca836bf8411182c636d22f-&gt;pvbatch_output_file_1039cafd3dd0921b24c2bef636b8135f</title>
<path fill="none" stroke="black" d="M1076.1,-215.7C1094.7,-206.53 1117.77,-195.16 1137.71,-185.33"/>
<polygon fill="black" stroke="black" points="1139.03,-188.58 1146.45,-181.02 1135.94,-182.3 1139.03,-188.58"/>
</g>
<!-- poisson_output_vtu_file_046bd2b27bca836bf8411182c636d22f&#45;&gt;plot_file_1039cafd3dd0921b24c2bef636b8135f -->
<g id="edge24" class="edge">
<title>poisson_output_vtu_file_046bd2b27bca836bf8411182c636d22f-&gt;plot_file_1039cafd3dd0921b24c2bef636b8135f</title>
<path fill="none" stroke="black" d="M1223.44,-217.83C1363.64,-206.18 1556.53,-190.14 1697.49,-178.42"/>
<polygon fill="black" stroke="black" points="1697.64,-181.92 1707.31,-177.61 1697.06,-174.95 1697.64,-181.92"/>
</g>
<!-- ndofs_80b0d3bf3c4c4309680b587a6d24c7ab&#45;&gt;macros_tex_a92b5d7ec8ee274114fdcb75cb9cea1d -->
<g id="edge25" class="edge">
<title>ndofs_80b0d3bf3c4c4309680b587a6d24c7ab-&gt;macros_tex_a92b5d7ec8ee274114fdcb75cb9cea1d</title>
<path fill="none" stroke="black" d="M420.29,-216.21C514.79,-197.43 673.66,-166.67 811,-144 889.66,-131.02 978,-118.35 1048.84,-108.66"/>
<polygon fill="black" stroke="black" points="1049.13,-112.15 1058.56,-107.33 1048.18,-105.22 1049.13,-112.15"/>
</g>
<!-- gmsh_output_file_6abc4cf8eb5cbaaad0d47530a1d72ad8 -->
<g id="node9" class="node">
<title>gmsh_output_file_6abc4cf8eb5cbaaad0d47530a1d72ad8</title>
<ellipse fill="none" stroke="black" cx="1264" cy="-378" rx="354.34" ry="18"/>
<text xml:space="preserve" text-anchor="middle" x="1264" y="-372.95" font-family="Times,serif" font-size="14.00">gmsh_output_file=&lt;pyiron_base.project.delayed.DelayedObject object at 0x7f0e0c210920&gt;</text>
</g>
<!-- gmsh_output_file_6abc4cf8eb5cbaaad0d47530a1d72ad8&#45;&gt;meshio_output_xdmf_ec4b28d599e591e71a8c17027ba85e66 -->
<g id="edge8" class="edge">
<title>gmsh_output_file_6abc4cf8eb5cbaaad0d47530a1d72ad8-&gt;meshio_output_xdmf_ec4b28d599e591e71a8c17027ba85e66</title>
<path fill="none" stroke="black" d="M1174.42,-360.14C1119.7,-349.85 1049.59,-336.65 992.91,-325.99"/>
<polygon fill="black" stroke="black" points="993.73,-322.58 983.25,-324.17 992.43,-329.46 993.73,-322.58"/>
</g>
<!-- meshio_output_h5_7c97f8852e6e6959d02463d1a046e9b9 -->
<g id="node10" class="node">
<title>meshio_output_h5_7c97f8852e6e6959d02463d1a046e9b9</title>
<ellipse fill="none" stroke="black" cx="1636" cy="-306" rx="357.92" ry="18"/>
<text xml:space="preserve" text-anchor="middle" x="1636" y="-300.95" font-family="Times,serif" font-size="14.00">meshio_output_h5=&lt;pyiron_base.project.delayed.DelayedObject object at 0x7f0e0c210b90&gt;</text>
</g>
<!-- gmsh_output_file_6abc4cf8eb5cbaaad0d47530a1d72ad8&#45;&gt;meshio_output_h5_7c97f8852e6e6959d02463d1a046e9b9 -->
<g id="edge9" class="edge">
<title>gmsh_output_file_6abc4cf8eb5cbaaad0d47530a1d72ad8-&gt;meshio_output_h5_7c97f8852e6e6959d02463d1a046e9b9</title>
<path fill="none" stroke="black" d="M1353.58,-360.14C1408.3,-349.85 1478.41,-336.65 1535.09,-325.99"/>
<polygon fill="black" stroke="black" points="1535.57,-329.46 1544.75,-324.17 1534.27,-322.58 1535.57,-329.46"/>
</g>
<!-- meshio_output_h5_7c97f8852e6e6959d02463d1a046e9b9&#45;&gt;poisson_output_pvd_file_3ecb903e960d72304cfd8ec39e449e3c -->
<g id="edge20" class="edge">
<title>meshio_output_h5_7c97f8852e6e6959d02463d1a046e9b9-&gt;poisson_output_pvd_file_3ecb903e960d72304cfd8ec39e449e3c</title>
<path fill="none" stroke="black" d="M1680.25,-287.7C1704.34,-278.27 1734.38,-266.53 1759.97,-256.52"/>
<polygon fill="black" stroke="black" points="1761.19,-259.8 1769.23,-252.9 1758.64,-253.28 1761.19,-259.8"/>
</g>
<!-- meshio_output_h5_7c97f8852e6e6959d02463d1a046e9b9&#45;&gt;poisson_output_vtu_file_046bd2b27bca836bf8411182c636d22f -->
<g id="edge21" class="edge">
<title>meshio_output_h5_7c97f8852e6e6959d02463d1a046e9b9-&gt;poisson_output_vtu_file_046bd2b27bca836bf8411182c636d22f</title>
<path fill="none" stroke="black" d="M1499.49,-288.94C1407,-278.06 1284.81,-263.68 1189.82,-252.51"/>
<polygon fill="black" stroke="black" points="1190.52,-249.07 1180.18,-251.37 1189.7,-256.02 1190.52,-249.07"/>
</g>
<!-- meshio_output_h5_7c97f8852e6e6959d02463d1a046e9b9&#45;&gt;ndofs_80b0d3bf3c4c4309680b587a6d24c7ab -->
<g id="edge22" class="edge">
<title>meshio_output_h5_7c97f8852e6e6959d02463d1a046e9b9-&gt;ndofs_80b0d3bf3c4c4309680b587a6d24c7ab</title>
<path fill="none" stroke="black" d="M1398.12,-292.18C1162.43,-279.48 803.75,-260.15 569.83,-247.55"/>
<polygon fill="black" stroke="black" points="570.13,-244.06 559.95,-247.01 569.75,-251.05 570.13,-244.06"/>
</g>
<!-- domain_size_f12a7f1986b9dd058dfc666dbe230b20 -->
<g id="node11" class="node">
<title>domain_size_f12a7f1986b9dd058dfc666dbe230b20</title>
<ellipse fill="none" stroke="black" cx="632" cy="-450" rx="75.41" ry="18"/>
<text xml:space="preserve" text-anchor="middle" x="632" y="-444.95" font-family="Times,serif" font-size="14.00">domain_size=2.0</text>
</g>
<!-- domain_size_f12a7f1986b9dd058dfc666dbe230b20&#45;&gt;macros_tex_a92b5d7ec8ee274114fdcb75cb9cea1d -->
<g id="edge10" class="edge">
<title>domain_size_f12a7f1986b9dd058dfc666dbe230b20-&gt;macros_tex_a92b5d7ec8ee274114fdcb75cb9cea1d</title>
<path fill="none" stroke="black" d="M556.71,-447.79C389.12,-443.07 0,-419.95 0,-307 0,-307 0,-307 0,-233 0,-145.01 522.61,-111.25 873.12,-98.51"/>
<polygon fill="black" stroke="black" points="873.1,-102.01 882.97,-98.16 872.85,-95.02 873.1,-102.01"/>
</g>
<!-- domain_size_f12a7f1986b9dd058dfc666dbe230b20&#45;&gt;gmsh_output_file_6abc4cf8eb5cbaaad0d47530a1d72ad8 -->
<g id="edge11" class="edge">
<title>domain_size_f12a7f1986b9dd058dfc666dbe230b20-&gt;gmsh_output_file_6abc4cf8eb5cbaaad0d47530a1d72ad8</title>
<path fill="none" stroke="black" d="M699.34,-441.54C796.3,-430.8 977.99,-410.68 1109.13,-396.15"/>
<polygon fill="black" stroke="black" points="1109.41,-399.64 1118.96,-395.06 1108.64,-392.69 1109.41,-399.64"/>
</g>
<!-- source_directory_a0d63e861779e5432d394b13fa9c975d -->
<g id="node12" class="node">
<title>source_directory_a0d63e861779e5432d394b13fa9c975d</title>
<ellipse fill="none" stroke="black" cx="2194" cy="-450" rx="306.74" ry="18"/>
<text xml:space="preserve" text-anchor="middle" x="2194" y="-444.95" font-family="Times,serif" font-size="14.00">source_directory=/home/jan/notebooks/2026/2026-01-11-materialdigital/source</text>
</g>
<!-- source_directory_a0d63e861779e5432d394b13fa9c975d&#45;&gt;create_function_job_9d0b52faccd24a95ae427a9460007774 -->
<g id="edge12" class="edge">
<title>source_directory_a0d63e861779e5432d394b13fa9c975d-&gt;create_function_job_9d0b52faccd24a95ae427a9460007774</title>
<path fill="none" stroke="black" d="M2231.31,-431.76C2273.38,-409.44 2336,-366.27 2336,-307 2336,-307 2336,-307 2336,-161 2336,-95.77 2162.79,-56.91 2030.58,-36.76"/>
<polygon fill="black" stroke="black" points="2031.43,-33.35 2021.03,-35.32 2030.4,-40.27 2031.43,-33.35"/>
</g>
<!-- source_directory_a0d63e861779e5432d394b13fa9c975d&#45;&gt;macros_tex_a92b5d7ec8ee274114fdcb75cb9cea1d -->
<g id="edge13" class="edge">
<title>source_directory_a0d63e861779e5432d394b13fa9c975d-&gt;macros_tex_a92b5d7ec8ee274114fdcb75cb9cea1d</title>
<path fill="none" stroke="black" d="M2218.38,-431.62C2249.12,-407.46 2298,-360.63 2298,-307 2298,-307 2298,-307 2298,-233 2298,-177.99 2262.07,-166.78 2212,-144 2149.14,-115.4 1787.7,-102.02 1510.77,-95.9"/>
<polygon fill="black" stroke="black" points="1510.89,-92.4 1500.81,-95.69 1510.74,-99.4 1510.89,-92.4"/>
</g>
<!-- source_directory_a0d63e861779e5432d394b13fa9c975d&#45;&gt;pvbatch_output_file_1039cafd3dd0921b24c2bef636b8135f -->
<g id="edge14" class="edge">
<title>source_directory_a0d63e861779e5432d394b13fa9c975d-&gt;pvbatch_output_file_1039cafd3dd0921b24c2bef636b8135f</title>
<path fill="none" stroke="black" d="M2201.87,-431.79C2220.19,-388.84 2260,-276.04 2203,-216 2199.75,-212.58 1749.92,-190.28 1448.78,-175.71"/>
<polygon fill="black" stroke="black" points="1449.36,-172.24 1439.2,-175.25 1449.02,-179.23 1449.36,-172.24"/>
</g>
<!-- source_directory_a0d63e861779e5432d394b13fa9c975d&#45;&gt;poisson_output_pvd_file_3ecb903e960d72304cfd8ec39e449e3c -->
<g id="edge15" class="edge">
<title>source_directory_a0d63e861779e5432d394b13fa9c975d-&gt;poisson_output_pvd_file_3ecb903e960d72304cfd8ec39e449e3c</title>
<path fill="none" stroke="black" d="M2189.94,-431.61C2181.13,-397.99 2156.9,-324.19 2107,-288 2085.59,-272.47 2034.38,-260.87 1980.72,-252.55"/>
<polygon fill="black" stroke="black" points="1981.51,-249.13 1971.1,-251.1 1980.47,-256.05 1981.51,-249.13"/>
</g>
<!-- source_directory_a0d63e861779e5432d394b13fa9c975d&#45;&gt;plot_file_1039cafd3dd0921b24c2bef636b8135f -->
<g id="edge19" class="edge">
<title>source_directory_a0d63e861779e5432d394b13fa9c975d-&gt;plot_file_1039cafd3dd0921b24c2bef636b8135f</title>
<path fill="none" stroke="black" d="M2212.6,-431.76C2221.53,-422.2 2231.29,-409.53 2236,-396 2262.31,-320.45 2288.2,-276.62 2236,-216 2219.33,-196.64 2176.78,-184.25 2126.75,-176.36"/>
<polygon fill="black" stroke="black" points="2127.53,-172.93 2117.12,-174.91 2126.49,-179.86 2127.53,-172.93"/>
</g>
<!-- source_directory_a0d63e861779e5432d394b13fa9c975d&#45;&gt;poisson_output_vtu_file_046bd2b27bca836bf8411182c636d22f -->
<g id="edge17" class="edge">
<title>source_directory_a0d63e861779e5432d394b13fa9c975d-&gt;poisson_output_vtu_file_046bd2b27bca836bf8411182c636d22f</title>
<path fill="none" stroke="black" d="M2180.46,-431.78C2152,-397.07 2082.01,-319.35 2003,-288 1986.96,-281.64 1591.75,-261.45 1312.94,-247.91"/>
<polygon fill="black" stroke="black" points="1313.5,-244.43 1303.34,-247.44 1313.16,-251.42 1313.5,-244.43"/>
</g>
<!-- source_directory_a0d63e861779e5432d394b13fa9c975d&#45;&gt;ndofs_80b0d3bf3c4c4309680b587a6d24c7ab -->
<g id="edge18" class="edge">
<title>source_directory_a0d63e861779e5432d394b13fa9c975d-&gt;ndofs_80b0d3bf3c4c4309680b587a6d24c7ab</title>
<path fill="none" stroke="black" d="M1887.72,-448.79C1625.12,-445.67 1237.12,-434.04 901,-396 727.59,-376.38 680.43,-379.56 515,-324 464.62,-307.08 410.52,-278.36 375.36,-258.13"/>
<polygon fill="black" stroke="black" points="377.23,-255.17 366.83,-253.17 373.71,-261.22 377.23,-255.17"/>
</g>
<!-- source_directory_a0d63e861779e5432d394b13fa9c975d&#45;&gt;gmsh_output_file_6abc4cf8eb5cbaaad0d47530a1d72ad8 -->
<g id="edge16" class="edge">
<title>source_directory_a0d63e861779e5432d394b13fa9c975d-&gt;gmsh_output_file_6abc4cf8eb5cbaaad0d47530a1d72ad8</title>
<path fill="none" stroke="black" d="M2010.54,-435.19C1854.16,-423.42 1629.66,-406.52 1467.73,-394.33"/>
<polygon fill="black" stroke="black" points="1468.42,-390.88 1458.18,-393.62 1467.89,-397.86 1468.42,-390.88"/>
</g>
</g>
</svg>